<svg id="svg" version="1.1" xmlns="http://www.w3.org/2000/svg" xmlns:xlink="http://www.w3.org/1999/xlink" width="400" height="160.95238095238096" viewBox="0, 0, 400,160.95238095238096"><g id="svgg"><path id="path0" d="M182.792 22.301 C 182.952 22.467,183.495 23.075,183.998 23.653 C 184.501 24.231,185.066 24.869,185.254 25.072 C 185.442 25.275,185.893 25.810,186.256 26.262 C 186.619 26.714,186.954 27.121,187.000 27.167 C 187.252 27.419,188.712 29.231,189.418 30.167 C 189.867 30.762,190.276 31.287,190.327 31.333 C 190.378 31.379,190.606 31.697,190.835 32.041 C 191.063 32.384,191.306 32.665,191.375 32.666 C 191.444 32.666,191.500 32.779,191.500 32.917 C 191.500 33.054,191.556 33.167,191.625 33.167 C 191.694 33.168,192.072 33.637,192.465 34.209 C 192.859 34.782,193.707 36.000,194.352 36.917 C 196.084 39.383,197.009 40.781,197.273 41.333 C 197.339 41.471,197.440 41.621,197.499 41.667 C 197.605 41.750,199.497 44.866,199.725 45.333 C 199.792 45.471,199.937 45.733,200.048 45.917 C 201.370 48.100,204.512 54.166,205.595 56.625 C 205.726 56.923,205.959 57.448,206.112 57.792 C 206.413 58.469,206.768 59.293,207.099 60.083 C 207.214 60.358,207.427 60.857,207.571 61.192 C 207.715 61.527,207.833 61.916,207.833 62.057 C 207.833 62.198,207.899 62.354,207.980 62.404 C 208.061 62.454,208.166 62.665,208.213 62.873 C 208.261 63.080,208.464 63.663,208.664 64.167 C 208.865 64.671,209.091 65.308,209.166 65.583 C 209.350 66.252,209.678 67.184,209.854 67.536 C 209.932 67.693,210.068 68.106,210.157 68.453 C 210.621 70.270,210.718 70.607,210.853 70.873 C 210.934 71.032,211.000 71.267,211.000 71.395 C 211.000 71.523,211.106 71.993,211.236 72.439 C 211.473 73.251,211.735 74.283,212.234 76.361 C 212.380 76.972,212.500 77.665,212.500 77.902 C 212.500 78.139,212.567 78.333,212.649 78.333 C 212.763 78.333,216.176 80.744,217.083 81.466 C 217.175 81.539,217.510 81.782,217.829 82.007 C 218.147 82.233,218.497 82.492,218.606 82.583 C 219.080 82.982,221.441 84.720,222.341 85.333 C 222.542 85.471,222.800 85.671,222.912 85.779 C 223.025 85.886,223.417 86.186,223.784 86.445 C 224.151 86.705,225.480 87.704,226.737 88.667 C 227.995 89.629,229.299 90.628,229.637 90.886 C 229.974 91.144,230.438 91.521,230.667 91.723 C 230.896 91.926,231.721 92.574,232.500 93.165 C 233.279 93.755,234.103 94.410,234.332 94.619 C 234.560 94.829,234.798 95.000,234.861 95.000 C 234.925 95.000,235.075 95.096,235.196 95.212 C 235.318 95.329,235.900 95.798,236.491 96.254 C 237.082 96.710,237.686 97.196,237.832 97.333 C 237.979 97.471,238.430 97.846,238.835 98.167 C 239.240 98.487,239.837 98.979,240.161 99.258 C 240.485 99.538,241.086 100.025,241.497 100.342 C 241.908 100.658,242.363 101.029,242.508 101.167 C 242.652 101.304,243.139 101.717,243.589 102.083 C 244.039 102.450,244.934 103.199,245.578 103.749 C 246.223 104.298,246.930 104.898,247.151 105.082 C 248.318 106.056,250.125 107.621,250.420 107.915 C 250.606 108.099,251.093 108.524,251.504 108.858 C 251.914 109.193,252.512 109.705,252.833 109.997 C 253.154 110.289,253.941 110.990,254.581 111.556 C 260.009 116.344,260.387 116.857,257.917 116.078 C 257.550 115.962,256.688 115.706,256.000 115.508 C 255.313 115.311,254.620 115.078,254.461 114.991 C 254.301 114.904,254.001 114.834,253.794 114.834 C 253.586 114.835,253.079 114.729,252.667 114.599 C 251.557 114.249,250.511 113.991,249.666 113.856 C 249.253 113.791,248.834 113.687,248.734 113.625 C 248.634 113.563,248.147 113.438,247.651 113.347 C 247.156 113.255,246.150 113.062,245.417 112.918 C 244.683 112.773,243.606 112.584,243.024 112.498 C 242.441 112.412,241.728 112.270,241.440 112.183 C 240.797 111.987,238.770 111.691,236.685 111.488 C 235.824 111.405,234.849 111.261,234.518 111.169 C 234.187 111.077,233.392 111.001,232.750 110.999 C 232.108 110.998,230.608 110.886,229.417 110.752 C 226.351 110.405,216.769 110.409,213.756 110.758 C 212.530 110.900,211.053 110.994,210.472 110.967 L 209.417 110.917 209.453 110.417 C 209.473 110.142,209.557 109.767,209.638 109.583 C 210.146 108.446,210.333 107.968,210.333 107.811 C 210.333 107.714,210.434 107.397,210.557 107.109 C 210.681 106.820,210.910 106.133,211.066 105.583 C 211.223 105.033,211.459 104.236,211.592 103.811 C 211.725 103.386,211.833 102.837,211.833 102.592 C 211.833 102.346,211.911 101.999,212.007 101.821 C 212.102 101.643,212.256 100.992,212.348 100.374 C 212.441 99.756,212.633 98.462,212.776 97.500 C 213.109 95.252,213.272 86.639,213.016 84.750 C 212.746 82.756,212.477 80.528,212.384 79.529 L 212.301 78.642 210.657 77.446 C 209.753 76.788,208.517 75.912,207.910 75.500 C 207.303 75.087,206.705 74.656,206.581 74.542 C 206.458 74.427,206.283 74.333,206.192 74.333 C 206.102 74.333,206.003 74.277,205.972 74.208 C 205.922 74.096,202.896 71.989,202.202 71.583 C 202.045 71.492,201.879 71.379,201.833 71.333 C 201.593 71.093,200.659 70.500,200.521 70.500 C 200.433 70.500,200.336 70.439,200.306 70.363 C 200.252 70.233,196.545 67.667,196.409 67.667 C 196.286 67.667,194.750 66.584,194.694 66.458 C 194.664 66.390,194.575 66.333,194.498 66.333 C 194.420 66.333,193.883 66.015,193.303 65.626 C 192.724 65.237,192.125 64.843,191.973 64.751 C 190.540 63.884,189.574 63.245,189.528 63.134 C 189.497 63.060,189.400 63.000,189.313 63.000 C 189.165 63.000,188.190 62.372,188.000 62.155 C 187.954 62.102,187.804 62.007,187.667 61.944 C 187.529 61.881,187.215 61.699,186.969 61.540 C 186.605 61.305,184.088 59.721,182.592 58.786 C 182.414 58.675,181.971 58.377,181.609 58.125 C 181.246 57.873,180.881 57.667,180.797 57.667 C 180.713 57.667,180.406 57.487,180.114 57.268 C 179.822 57.049,179.321 56.727,179.000 56.554 C 178.679 56.381,178.117 56.049,177.750 55.816 C 177.383 55.583,176.971 55.339,176.833 55.273 C 176.521 55.124,176.161 54.904,175.000 54.155 C 174.496 53.829,173.821 53.418,173.500 53.240 C 173.179 53.063,172.204 52.502,171.333 51.994 C 170.462 51.487,169.469 50.926,169.125 50.748 C 168.781 50.570,168.500 50.366,168.500 50.295 C 168.500 50.225,168.416 50.167,168.313 50.167 C 168.210 50.167,167.591 49.843,166.938 49.448 C 166.284 49.053,165.637 48.677,165.500 48.613 C 165.362 48.549,165.025 48.352,164.750 48.176 C 164.475 48.000,163.950 47.689,163.583 47.485 C 162.609 46.943,162.171 46.697,161.333 46.223 C 160.921 45.990,160.058 45.517,159.417 45.173 C 157.530 44.160,156.295 43.488,155.583 43.085 C 154.959 42.732,153.576 41.975,151.833 41.034 C 146.847 38.340,136.729 33.202,132.250 31.089 C 131.150 30.571,129.337 29.701,128.221 29.156 C 127.106 28.612,126.148 28.167,126.093 28.167 C 126.038 28.167,125.338 27.861,124.538 27.487 C 123.738 27.113,122.858 26.711,122.583 26.594 C 122.308 26.477,121.746 26.225,121.333 26.034 C 120.921 25.844,120.208 25.528,119.750 25.333 C 119.292 25.138,118.617 24.840,118.250 24.671 C 116.751 23.980,116.302 23.809,116.213 23.898 C 116.109 24.002,116.240 24.120,118.474 25.941 C 120.000 27.186,123.201 30.205,125.228 32.312 C 125.790 32.896,126.566 33.703,126.953 34.105 C 127.974 35.166,131.020 38.723,131.490 39.402 C 131.623 39.594,131.773 39.787,131.824 39.833 C 132.019 40.008,133.970 42.474,134.922 43.749 C 135.469 44.482,136.010 45.182,136.125 45.303 C 136.240 45.424,136.333 45.575,136.333 45.639 C 136.333 45.702,136.502 45.943,136.708 46.174 C 136.915 46.405,137.341 46.967,137.656 47.422 C 138.512 48.661,139.559 50.214,139.749 50.527 C 139.841 50.680,140.487 51.655,141.185 52.694 C 143.025 55.436,143.594 56.336,144.087 57.284 C 144.239 57.578,144.470 57.906,144.599 58.013 C 144.728 58.120,144.833 58.270,144.833 58.346 C 144.833 58.423,145.028 58.770,145.267 59.118 C 145.505 59.465,145.769 59.900,145.852 60.083 C 145.936 60.267,146.153 60.642,146.334 60.917 C 146.515 61.192,146.715 61.529,146.779 61.667 C 146.843 61.804,147.167 62.367,147.500 62.917 C 147.833 63.467,148.157 64.029,148.220 64.167 C 148.283 64.304,148.595 64.867,148.913 65.417 C 149.231 65.967,149.662 66.754,149.871 67.167 C 150.079 67.579,150.311 67.992,150.386 68.083 C 150.870 68.678,157.435 81.958,158.419 84.333 C 158.666 84.929,159.058 85.829,159.290 86.333 C 159.522 86.837,159.806 87.475,159.922 87.750 C 160.218 88.450,160.571 89.258,161.071 90.380 C 161.307 90.909,161.500 91.382,161.500 91.430 C 161.500 91.479,161.654 91.870,161.842 92.301 C 162.031 92.731,162.263 93.271,162.358 93.500 C 162.453 93.729,162.636 94.129,162.765 94.389 C 162.894 94.648,163.000 95.000,163.000 95.170 C 163.000 95.341,163.067 95.522,163.148 95.572 C 163.230 95.622,163.345 95.870,163.404 96.123 C 163.499 96.532,163.749 97.139,164.191 98.039 C 164.269 98.199,164.333 98.412,164.333 98.514 C 164.333 98.616,164.436 98.936,164.561 99.225 C 164.686 99.514,164.918 100.087,165.078 100.500 C 165.237 100.912,165.472 101.496,165.600 101.797 C 165.728 102.098,165.833 102.478,165.833 102.640 C 165.833 102.803,165.943 103.082,166.078 103.260 C 166.213 103.438,166.325 103.748,166.328 103.948 C 166.331 104.149,166.403 104.356,166.487 104.409 C 166.572 104.461,166.691 104.733,166.753 105.013 C 166.814 105.293,166.970 105.724,167.098 105.970 C 167.226 106.215,167.332 106.570,167.332 106.758 C 167.333 106.946,167.399 107.171,167.480 107.258 C 167.560 107.345,167.797 107.979,168.006 108.667 C 168.214 109.354,168.441 110.029,168.509 110.167 C 168.715 110.584,169.518 113.045,169.650 113.667 C 169.719 113.987,169.863 114.414,169.971 114.614 C 170.079 114.814,170.167 115.156,170.167 115.372 C 170.167 115.589,170.237 115.838,170.324 115.925 C 170.410 116.012,170.555 116.383,170.645 116.750 C 170.844 117.554,171.155 118.620,172.081 121.667 C 172.234 122.171,172.426 122.903,172.508 123.294 C 172.590 123.685,172.735 124.149,172.829 124.325 C 172.923 124.501,173.003 124.856,173.006 125.114 C 173.009 125.372,173.119 125.771,173.250 126.000 C 173.381 126.229,173.491 126.645,173.494 126.925 C 173.497 127.205,173.569 127.505,173.654 127.592 C 173.738 127.679,173.884 128.125,173.978 128.583 C 174.072 129.042,174.269 129.904,174.416 130.500 C 174.564 131.096,174.747 131.846,174.822 132.167 C 174.998 132.914,175.318 134.183,175.606 135.276 C 175.731 135.748,175.833 136.294,175.833 136.489 C 175.833 136.991,176.234 137.083,177.054 136.770 C 177.443 136.622,177.925 136.500,178.125 136.500 C 178.325 136.500,178.735 136.394,179.036 136.265 C 179.337 136.136,180.183 135.903,180.917 135.746 C 181.650 135.589,182.438 135.387,182.667 135.298 C 182.896 135.208,183.421 135.069,183.833 134.990 C 185.216 134.723,186.415 134.459,186.667 134.366 C 186.976 134.253,188.767 133.880,190.015 133.669 C 190.528 133.583,191.151 133.434,191.401 133.339 C 191.651 133.244,192.131 133.167,192.469 133.168 C 192.807 133.169,193.571 133.059,194.167 132.924 C 195.922 132.525,198.198 132.164,198.947 132.166 C 199.331 132.166,199.856 132.085,200.114 131.985 C 200.372 131.885,201.296 131.741,202.167 131.665 C 204.713 131.444,207.488 131.165,208.833 130.994 C 213.075 130.456,233.504 130.467,235.917 131.009 C 236.283 131.091,237.183 131.166,237.917 131.175 C 238.650 131.184,239.662 131.260,240.167 131.344 C 240.671 131.429,241.891 131.568,242.879 131.654 C 243.867 131.740,244.917 131.884,245.212 131.973 C 245.508 132.063,246.322 132.179,247.021 132.231 C 247.719 132.283,248.493 132.402,248.740 132.496 C 248.986 132.590,249.540 132.667,249.969 132.668 C 250.399 132.669,251.118 132.782,251.568 132.918 C 252.018 133.055,252.693 133.167,253.068 133.168 C 253.443 133.169,254.118 133.282,254.568 133.418 C 255.018 133.555,255.679 133.667,256.037 133.667 C 256.396 133.667,256.830 133.742,257.002 133.834 C 257.174 133.927,257.751 134.072,258.283 134.157 C 258.815 134.242,259.775 134.433,260.417 134.581 C 261.058 134.728,261.958 134.915,262.417 134.995 C 262.875 135.075,263.475 135.211,263.750 135.298 C 264.025 135.386,264.850 135.585,265.583 135.742 C 266.317 135.898,267.292 136.127,267.750 136.250 C 268.208 136.373,268.921 136.559,269.333 136.663 C 269.746 136.767,270.346 136.919,270.667 137.000 C 270.987 137.081,271.625 137.230,272.083 137.331 C 272.542 137.431,273.032 137.576,273.173 137.653 C 273.314 137.729,273.745 137.845,274.131 137.911 C 274.516 137.976,274.874 138.097,274.926 138.181 C 274.977 138.265,275.224 138.333,275.473 138.333 C 275.722 138.333,276.074 138.436,276.255 138.562 C 276.435 138.687,276.846 138.828,277.167 138.874 C 277.487 138.920,277.975 139.036,278.250 139.132 C 278.525 139.228,279.162 139.430,279.667 139.583 C 280.171 139.735,280.846 139.958,281.167 140.079 C 283.387 140.912,283.727 140.835,282.705 139.734 C 282.271 139.267,281.206 138.105,280.336 137.151 C 277.241 133.755,269.179 125.623,265.336 122.022 C 261.383 118.318,260.000 116.944,260.000 116.719 C 260.000 116.433,260.676 116.439,261.369 116.730 C 261.670 116.857,262.329 117.090,262.833 117.247 C 263.337 117.405,263.986 117.639,264.275 117.767 C 264.564 117.895,264.871 118.000,264.958 118.000 C 265.110 118.000,265.948 118.359,266.539 118.677 C 266.699 118.763,266.950 118.833,267.098 118.833 C 267.245 118.833,267.603 118.936,267.891 119.061 C 268.180 119.186,268.754 119.422,269.167 119.586 C 269.579 119.749,270.235 120.022,270.625 120.192 C 272.005 120.792,272.923 121.190,273.417 121.401 C 273.692 121.518,274.404 121.851,275.000 122.141 C 275.596 122.430,276.168 122.667,276.271 122.667 C 276.375 122.667,276.553 122.779,276.667 122.917 C 276.781 123.054,276.991 123.167,277.134 123.167 C 277.367 123.167,280.042 124.434,280.667 124.841 C 280.804 124.930,281.254 125.156,281.667 125.343 C 282.079 125.530,282.747 125.867,283.151 126.091 C 283.555 126.316,283.980 126.500,284.096 126.500 C 284.211 126.500,284.331 126.560,284.361 126.632 C 284.413 126.756,285.751 127.500,285.922 127.500 C 286.126 127.500,285.961 126.914,285.625 126.446 C 285.419 126.159,285.175 125.799,285.083 125.647 C 284.992 125.495,284.594 124.856,284.200 124.227 C 283.805 123.598,283.393 122.937,283.283 122.759 C 283.173 122.581,283.021 122.356,282.945 122.259 C 282.869 122.162,282.143 121.071,281.332 119.833 C 279.528 117.081,278.176 115.145,275.625 111.664 C 274.548 110.194,273.667 108.924,273.667 108.843 C 273.667 108.761,273.606 108.669,273.532 108.639 C 273.457 108.608,272.692 107.646,271.831 106.500 C 270.969 105.354,270.092 104.230,269.882 104.002 C 269.672 103.773,269.500 103.535,269.500 103.472 C 269.500 103.409,269.402 103.258,269.283 103.137 C 269.163 103.016,268.584 102.279,267.994 101.500 C 267.405 100.721,266.827 99.983,266.709 99.861 C 266.591 99.738,266.290 99.363,266.040 99.027 C 265.573 98.399,263.942 96.409,263.286 95.665 C 263.083 95.434,262.429 94.648,261.833 93.917 C 261.237 93.186,260.637 92.469,260.500 92.323 C 260.362 92.177,260.100 91.873,259.917 91.648 C 259.294 90.883,257.918 89.258,257.667 88.991 C 257.185 88.479,256.243 87.403,255.429 86.437 C 254.978 85.901,254.349 85.189,254.032 84.856 C 253.714 84.523,252.927 83.650,252.281 82.917 C 251.635 82.183,250.680 81.133,250.158 80.583 C 249.636 80.033,248.843 79.171,248.396 78.667 C 247.949 78.162,246.908 77.047,246.083 76.187 C 245.258 75.328,244.142 74.165,243.603 73.604 C 239.826 69.671,232.736 62.661,229.066 59.230 C 227.975 58.211,226.699 57.011,226.228 56.564 C 225.174 55.561,224.461 54.915,222.752 53.417 C 222.020 52.775,221.338 52.175,221.237 52.083 C 220.891 51.771,217.948 49.084,217.765 48.914 C 217.665 48.821,217.246 48.486,216.833 48.170 C 216.421 47.854,215.931 47.443,215.745 47.256 C 215.560 47.069,214.960 46.546,214.412 46.092 C 213.865 45.639,213.296 45.151,213.149 45.009 C 212.851 44.721,212.464 44.398,211.245 43.417 C 210.305 42.660,209.707 42.163,209.436 41.910 C 209.334 41.814,208.463 41.104,207.500 40.331 C 206.537 39.558,205.713 38.884,205.667 38.834 C 205.621 38.783,205.246 38.481,204.834 38.162 C 204.422 37.844,203.934 37.460,203.751 37.310 C 202.520 36.304,200.580 34.790,199.625 34.092 C 199.006 33.639,198.500 33.209,198.500 33.135 C 198.500 33.061,198.397 33.000,198.270 33.000 C 198.144 33.000,197.946 32.886,197.830 32.746 C 197.580 32.445,192.838 28.893,192.000 28.380 C 191.679 28.183,191.266 27.881,191.081 27.708 C 190.897 27.536,190.625 27.324,190.476 27.239 C 190.328 27.153,189.891 26.824,189.505 26.508 C 189.120 26.192,188.667 25.854,188.499 25.758 C 188.007 25.476,185.846 23.988,185.622 23.777 C 184.650 22.861,181.992 21.475,182.792 22.301 " stroke="none" fill="#053563" fill-rule="evenodd"></path><path id="path1" d="M0.000 80.417 L 0.000 160.833 200.000 160.833 L 400.000 160.833 400.000 80.417 L 400.000 0.000 200.000 0.000 L 0.000 0.000 0.000 80.417 M183.062 21.454 C 185.240 22.901,185.469 23.062,185.911 23.458 C 186.038 23.573,186.187 23.667,186.241 23.667 C 186.295 23.667,186.780 23.985,187.321 24.375 C 187.861 24.765,188.469 25.196,188.672 25.333 C 188.875 25.471,189.129 25.658,189.236 25.750 C 189.343 25.842,189.549 25.992,189.693 26.083 C 189.838 26.175,190.360 26.569,190.853 26.960 C 191.346 27.350,191.825 27.728,191.917 27.799 C 192.008 27.870,192.627 28.292,193.292 28.736 C 193.956 29.181,194.500 29.609,194.500 29.689 C 194.500 29.768,194.579 29.833,194.675 29.833 C 194.824 29.833,198.094 32.211,198.333 32.494 C 198.379 32.548,198.754 32.847,199.167 33.158 C 199.579 33.470,199.992 33.808,200.083 33.910 C 200.175 34.012,200.512 34.279,200.833 34.504 C 201.154 34.728,201.529 35.002,201.667 35.113 C 202.725 35.963,204.769 37.563,205.667 38.244 C 206.262 38.696,206.915 39.238,207.117 39.449 C 207.319 39.661,207.528 39.833,207.582 39.833 C 207.696 39.833,207.860 39.961,208.667 40.675 C 209.545 41.453,211.745 43.319,212.754 44.142 C 213.148 44.463,215.164 46.173,215.436 46.417 C 216.024 46.943,216.671 47.477,217.333 47.984 C 217.746 48.299,218.483 48.938,218.971 49.403 C 220.361 50.728,220.665 51.006,222.085 52.250 C 222.817 52.891,223.614 53.603,223.855 53.833 C 224.096 54.062,224.884 54.775,225.605 55.416 C 226.863 56.534,228.033 57.643,232.993 62.417 C 237.638 66.888,246.371 75.751,248.858 78.517 C 250.058 79.852,250.033 79.825,252.264 82.262 C 253.097 83.172,254.071 84.254,254.430 84.667 C 254.788 85.079,255.231 85.569,255.415 85.755 C 255.829 86.173,256.719 87.194,257.526 88.176 C 258.246 89.052,258.671 89.543,259.391 90.333 C 259.683 90.654,260.221 91.292,260.586 91.750 C 260.951 92.208,261.325 92.666,261.417 92.767 C 261.508 92.868,261.883 93.316,262.250 93.763 C 262.617 94.210,263.148 94.840,263.432 95.163 C 263.715 95.486,264.127 95.967,264.348 96.232 C 264.569 96.497,264.869 96.835,265.014 96.982 C 265.160 97.129,265.867 98.037,266.587 99.000 C 267.307 99.962,267.939 100.787,267.992 100.833 C 268.044 100.879,268.687 101.704,269.419 102.666 C 270.151 103.629,270.862 104.536,271.000 104.683 C 271.348 105.054,271.647 105.439,272.412 106.500 C 272.775 107.004,273.112 107.454,273.161 107.500 C 273.210 107.546,273.434 107.846,273.659 108.167 C 273.884 108.487,274.131 108.825,274.208 108.917 C 274.594 109.378,276.333 111.835,276.333 111.918 C 276.333 112.007,276.479 112.202,276.927 112.714 C 277.025 112.826,277.175 113.038,277.261 113.186 C 277.347 113.334,277.618 113.709,277.864 114.019 C 278.680 115.046,280.167 117.185,280.167 117.330 C 280.167 117.408,280.223 117.497,280.292 117.528 C 280.403 117.577,283.287 121.820,283.501 122.248 C 283.547 122.341,283.866 122.844,284.209 123.367 C 284.552 123.890,284.833 124.353,284.833 124.397 C 284.833 124.441,285.152 124.950,285.541 125.530 C 286.389 126.793,286.621 127.169,286.756 127.500 C 286.812 127.638,286.928 127.881,287.014 128.042 C 287.339 128.651,286.487 128.415,284.750 127.417 C 283.272 126.566,275.610 122.795,274.083 122.166 C 273.900 122.091,273.262 121.809,272.667 121.540 C 272.071 121.271,271.246 120.915,270.833 120.750 C 270.421 120.584,269.708 120.282,269.250 120.080 C 268.792 119.878,267.592 119.431,266.583 119.086 C 265.575 118.742,264.679 118.394,264.592 118.314 C 264.505 118.233,264.275 118.167,264.082 118.167 C 263.889 118.167,263.585 118.057,263.407 117.922 C 263.229 117.787,262.924 117.675,262.729 117.672 C 262.534 117.669,262.102 117.553,261.770 117.414 C 260.811 117.014,261.039 117.328,263.110 119.265 C 265.576 121.572,272.680 128.526,274.235 130.154 C 274.885 130.835,276.279 132.268,277.333 133.339 C 279.311 135.347,282.283 138.507,282.940 139.301 C 283.146 139.549,283.543 140.009,283.824 140.323 C 284.607 141.200,284.127 141.731,283.039 141.189 C 282.586 140.963,281.639 140.646,281.000 140.507 C 280.679 140.437,280.229 140.302,280.000 140.208 C 279.771 140.113,279.133 139.904,278.583 139.744 C 278.033 139.584,277.433 139.398,277.250 139.331 C 277.067 139.264,276.354 139.044,275.667 138.842 C 274.979 138.641,274.286 138.407,274.127 138.322 C 273.968 138.236,273.733 138.167,273.605 138.167 C 273.477 138.167,272.969 138.050,272.477 137.907 C 271.986 137.765,271.171 137.535,270.667 137.397 C 270.162 137.259,269.375 137.042,268.917 136.915 C 268.458 136.788,267.821 136.642,267.500 136.592 C 266.912 136.498,265.493 136.194,263.500 135.734 C 262.904 135.597,262.033 135.421,261.563 135.343 C 261.093 135.265,260.555 135.118,260.366 135.017 C 260.177 134.916,259.780 134.833,259.484 134.833 C 259.188 134.833,258.564 134.724,258.098 134.590 C 256.592 134.159,255.029 133.833,254.465 133.833 C 254.162 133.833,253.652 133.752,253.332 133.654 C 253.012 133.555,252.188 133.405,251.500 133.322 C 250.813 133.239,249.537 133.056,248.667 132.916 C 247.796 132.776,246.446 132.584,245.667 132.490 C 244.887 132.395,243.875 132.251,243.417 132.169 C 241.904 131.897,238.962 131.637,235.833 131.498 C 234.137 131.422,232.225 131.281,231.583 131.183 C 230.098 130.958,214.374 130.952,213.333 131.176 C 212.921 131.265,211.346 131.377,209.833 131.425 C 208.321 131.474,206.671 131.588,206.167 131.680 C 205.662 131.772,204.463 131.918,203.500 132.005 C 202.537 132.092,201.000 132.278,200.083 132.419 C 199.167 132.559,197.817 132.747,197.083 132.836 C 196.350 132.925,195.637 133.042,195.500 133.097 C 195.362 133.151,194.725 133.260,194.083 133.339 C 192.548 133.528,191.114 133.797,190.069 134.093 C 189.602 134.225,189.030 134.333,188.797 134.333 C 188.565 134.333,188.105 134.446,187.776 134.583 C 187.447 134.721,186.879 134.833,186.515 134.833 C 186.151 134.833,185.809 134.904,185.756 134.990 C 185.703 135.077,185.304 135.194,184.871 135.252 C 184.438 135.309,183.933 135.427,183.750 135.513 C 183.413 135.670,182.493 135.883,180.853 136.181 C 180.360 136.271,179.821 136.417,179.656 136.506 C 179.491 136.594,179.158 136.667,178.917 136.667 C 178.675 136.667,178.314 136.755,178.114 136.863 C 177.759 137.053,176.735 137.319,176.103 137.384 C 175.753 137.420,175.388 136.629,175.158 135.333 C 175.001 134.451,174.709 133.285,174.469 132.583 C 174.375 132.308,174.234 131.783,174.155 131.417 C 174.077 131.050,173.925 130.337,173.817 129.833 C 173.709 129.329,173.519 128.680,173.394 128.391 C 173.269 128.103,173.167 127.649,173.167 127.383 C 173.167 127.117,173.100 126.829,173.018 126.742 C 172.936 126.655,172.781 126.208,172.675 125.750 C 172.569 125.292,172.369 124.467,172.232 123.917 C 172.094 123.367,171.924 122.654,171.853 122.333 C 171.783 122.013,171.637 121.586,171.529 121.386 C 171.421 121.186,171.333 120.844,171.333 120.628 C 171.333 120.411,171.263 120.162,171.176 120.075 C 171.090 119.988,170.943 119.617,170.851 119.250 C 170.394 117.442,170.275 117.050,170.063 116.641 C 169.937 116.398,169.833 116.008,169.833 115.776 C 169.833 115.543,169.767 115.312,169.686 115.262 C 169.604 115.211,169.487 114.888,169.424 114.544 C 169.293 113.819,168.576 111.505,168.233 110.703 C 168.105 110.402,168.000 110.054,168.000 109.930 C 168.000 109.806,167.888 109.490,167.751 109.227 C 167.614 108.965,167.502 108.596,167.501 108.408 C 167.500 108.220,167.432 107.995,167.349 107.908 C 167.266 107.821,167.122 107.487,167.029 107.167 C 166.735 106.150,166.277 104.939,165.830 103.995 C 165.763 103.854,165.656 103.499,165.592 103.205 C 165.527 102.911,165.405 102.628,165.321 102.575 C 165.236 102.523,165.167 102.312,165.167 102.105 C 165.167 101.899,165.057 101.585,164.922 101.407 C 164.787 101.229,164.675 100.959,164.672 100.807 C 164.669 100.655,164.442 100.030,164.167 99.417 C 163.892 98.804,163.667 98.203,163.667 98.081 C 163.667 97.960,163.560 97.648,163.430 97.389 C 163.300 97.129,163.066 96.579,162.910 96.167 C 162.522 95.138,162.340 94.682,162.049 94.000 C 161.473 92.650,161.361 92.381,161.083 91.667 C 160.657 90.570,160.335 89.823,159.329 87.583 C 159.040 86.942,158.745 86.267,158.672 86.083 C 158.599 85.900,158.407 85.412,158.244 85.000 C 158.082 84.587,157.735 83.794,157.474 83.237 C 157.214 82.680,157.000 82.136,157.000 82.028 C 157.000 81.921,156.925 81.833,156.833 81.833 C 156.742 81.833,156.667 81.747,156.667 81.641 C 156.667 81.474,154.971 77.842,154.461 76.917 C 154.360 76.733,153.400 74.858,152.328 72.750 C 150.032 68.236,149.313 66.900,148.378 65.410 C 148.265 65.230,147.977 64.708,147.739 64.250 C 147.231 63.275,147.067 62.993,146.455 62.045 C 146.205 61.657,146.000 61.270,146.000 61.184 C 146.000 61.098,145.944 61.003,145.875 60.972 C 145.806 60.942,145.619 60.673,145.458 60.375 C 145.298 60.077,145.035 59.590,144.875 59.292 C 144.715 58.994,144.524 58.707,144.452 58.653 C 144.380 58.600,144.165 58.262,143.974 57.903 C 143.617 57.232,142.162 54.982,141.989 54.833 C 141.936 54.788,141.842 54.637,141.781 54.500 C 141.655 54.219,141.543 54.043,140.542 52.541 C 140.152 51.957,139.833 51.443,139.833 51.399 C 139.833 51.355,139.740 51.207,139.625 51.071 C 139.510 50.934,139.341 50.731,139.250 50.619 C 139.158 50.508,138.425 49.427,137.621 48.217 C 136.817 47.007,136.067 45.919,135.955 45.800 C 135.842 45.681,135.553 45.283,135.313 44.917 C 135.073 44.550,134.643 43.987,134.357 43.667 C 134.072 43.346,133.837 43.038,133.836 42.982 C 133.835 42.926,133.574 42.605,133.258 42.270 C 132.941 41.934,132.441 41.323,132.146 40.913 C 131.851 40.502,131.548 40.167,131.472 40.167 C 131.396 40.167,131.333 40.092,131.333 40.000 C 131.333 39.908,131.202 39.700,131.042 39.536 C 130.881 39.373,130.563 38.991,130.333 38.688 C 129.675 37.817,128.971 36.966,128.250 36.167 C 127.883 35.762,127.210 35.014,126.753 34.506 C 124.352 31.837,119.585 27.340,116.941 25.250 C 113.579 22.593,113.575 22.590,113.896 22.528 C 114.065 22.495,114.284 22.551,114.384 22.651 C 114.485 22.751,114.703 22.833,114.869 22.833 C 115.035 22.833,115.301 22.897,115.461 22.975 C 115.867 23.175,116.811 23.597,117.500 23.888 C 117.821 24.023,118.590 24.366,119.209 24.650 C 119.828 24.934,120.392 25.167,120.462 25.167 C 120.532 25.167,121.187 25.467,121.917 25.833 C 122.647 26.200,123.320 26.500,123.414 26.501 C 123.507 26.502,123.776 26.603,124.011 26.725 C 124.246 26.848,124.640 26.999,124.886 27.061 C 125.132 27.123,125.333 27.247,125.333 27.337 C 125.333 27.426,125.440 27.500,125.570 27.500 C 125.700 27.500,126.019 27.606,126.278 27.736 C 126.538 27.865,127.050 28.109,127.417 28.277 C 127.783 28.446,128.121 28.621,128.167 28.667 C 128.212 28.712,128.759 28.989,129.380 29.282 C 131.387 30.226,132.738 30.853,133.250 31.078 C 134.062 31.434,137.728 33.178,138.000 33.336 C 138.137 33.417,139.262 33.987,140.500 34.604 C 141.737 35.221,142.787 35.768,142.833 35.821 C 142.931 35.933,143.779 36.376,147.417 38.217 C 148.883 38.959,150.108 39.626,150.139 39.700 C 150.169 39.773,150.329 39.833,150.493 39.833 C 150.658 39.833,150.886 39.946,151.000 40.083 C 151.114 40.221,151.324 40.333,151.466 40.333 C 151.608 40.333,151.842 40.437,151.987 40.563 C 152.132 40.690,152.775 41.075,153.417 41.419 C 154.058 41.762,154.996 42.276,155.500 42.559 C 156.582 43.168,157.793 43.817,158.833 44.347 C 159.246 44.557,160.053 45.015,160.628 45.365 C 161.202 45.714,161.775 46.000,161.899 46.000 C 162.024 46.000,162.219 46.112,162.333 46.250 C 162.447 46.387,162.610 46.500,162.695 46.500 C 162.779 46.500,163.896 47.137,165.176 47.917 C 166.457 48.696,167.573 49.333,167.657 49.333 C 167.741 49.333,167.909 49.428,168.030 49.544 C 168.151 49.659,168.438 49.847,168.667 49.961 C 168.896 50.075,169.431 50.374,169.856 50.626 C 170.848 51.213,173.175 52.544,173.500 52.710 C 173.637 52.780,173.975 52.985,174.250 53.166 C 174.525 53.347,174.900 53.572,175.083 53.667 C 175.267 53.761,175.642 53.985,175.917 54.164 C 176.192 54.344,176.717 54.653,177.083 54.851 C 177.450 55.049,177.787 55.265,177.833 55.331 C 177.879 55.396,178.367 55.696,178.917 55.997 C 179.467 56.298,180.018 56.625,180.143 56.724 C 180.393 56.923,180.813 57.168,181.617 57.587 C 181.911 57.739,182.239 57.970,182.346 58.099 C 182.453 58.228,182.610 58.333,182.694 58.333 C 182.876 58.333,183.893 59.029,183.972 59.208 C 184.003 59.277,184.123 59.333,184.239 59.333 C 184.355 59.333,184.761 59.558,185.140 59.833 C 185.520 60.108,185.872 60.333,185.922 60.333 C 185.972 60.333,186.217 60.475,186.465 60.649 C 186.713 60.822,188.042 61.696,189.417 62.590 C 193.669 65.357,194.248 65.746,194.306 65.875 C 194.336 65.944,194.443 66.000,194.542 66.000 C 194.642 66.000,194.842 66.104,194.987 66.232 C 195.132 66.359,195.512 66.604,195.833 66.777 C 196.154 66.949,197.080 67.538,197.891 68.086 C 198.702 68.635,199.518 69.170,199.705 69.277 C 199.892 69.383,200.091 69.537,200.148 69.620 C 200.204 69.702,200.813 70.139,201.500 70.592 C 202.188 71.044,202.787 71.456,202.833 71.507 C 202.879 71.559,203.217 71.782,203.583 72.003 C 203.950 72.225,204.400 72.547,204.583 72.719 C 204.767 72.891,205.067 73.099,205.250 73.180 C 205.433 73.262,206.371 73.889,207.333 74.574 C 210.128 76.564,211.520 77.500,211.682 77.500 C 211.912 77.500,211.863 76.390,211.595 75.522 C 211.292 74.543,211.000 73.393,210.891 72.750 C 210.844 72.475,210.699 72.014,210.569 71.725 C 210.440 71.436,210.333 71.013,210.333 70.786 C 210.333 70.558,210.221 70.157,210.084 69.894 C 209.947 69.631,209.835 69.215,209.834 68.968 C 209.834 68.721,209.758 68.473,209.667 68.417 C 209.575 68.360,209.500 68.149,209.499 67.948 C 209.498 67.748,209.393 67.382,209.265 67.136 C 209.136 66.890,208.981 66.460,208.920 66.180 C 208.858 65.900,208.738 65.628,208.654 65.575 C 208.569 65.523,208.500 65.337,208.500 65.162 C 208.500 64.988,208.395 64.598,208.267 64.297 C 208.139 63.996,207.908 63.413,207.754 63.000 C 207.600 62.587,207.367 62.038,207.237 61.778 C 207.107 61.519,207.000 61.206,207.000 61.083 C 207.000 60.961,206.890 60.648,206.757 60.389 C 206.405 59.707,205.742 58.202,205.411 57.333 C 205.036 56.351,201.833 49.867,201.087 48.583 C 200.768 48.033,200.454 47.471,200.389 47.333 C 200.324 47.196,199.886 46.446,199.417 45.667 C 198.947 44.887,198.511 44.137,198.446 44.000 C 198.382 43.862,198.199 43.548,198.040 43.301 C 197.880 43.054,197.276 42.087,196.697 41.153 C 196.117 40.219,195.217 38.869,194.697 38.155 C 194.176 37.440,193.188 36.058,192.500 35.083 C 191.813 34.108,191.156 33.208,191.042 33.084 C 190.927 32.959,190.833 32.783,190.833 32.692 C 190.833 32.602,190.777 32.503,190.708 32.472 C 190.640 32.442,190.376 32.110,190.122 31.736 C 189.868 31.362,189.528 30.912,189.366 30.736 C 189.205 30.560,188.788 30.042,188.440 29.583 C 188.092 29.125,187.569 28.488,187.276 28.167 C 186.984 27.846,186.446 27.208,186.081 26.750 C 185.715 26.292,185.229 25.717,185.000 25.473 C 182.091 22.374,180.410 20.312,180.620 20.102 C 180.783 19.939,180.770 19.931,183.062 21.454 M212.935 80.458 C 212.989 81.169,213.102 82.012,213.187 82.333 C 213.803 84.658,213.799 95.951,213.181 97.553 C 213.081 97.811,213.000 98.368,213.000 98.792 C 213.000 99.215,212.895 99.979,212.766 100.489 C 212.638 100.999,212.408 101.979,212.254 102.667 C 211.734 105.004,211.448 106.083,211.307 106.242 C 211.230 106.329,211.166 106.554,211.166 106.742 C 211.165 106.930,211.053 107.298,210.916 107.561 C 210.779 107.823,210.667 108.147,210.667 108.280 C 210.667 108.413,210.575 108.686,210.463 108.886 C 210.351 109.086,210.173 109.576,210.068 109.974 L 209.877 110.697 210.314 110.598 C 214.269 109.700,231.267 110.097,238.333 111.252 C 239.204 111.395,240.517 111.588,241.250 111.682 C 241.983 111.776,242.655 111.924,242.742 112.010 C 242.829 112.096,243.241 112.170,243.658 112.174 C 244.075 112.178,244.717 112.289,245.083 112.421 C 245.450 112.554,246.026 112.663,246.364 112.664 C 246.702 112.666,247.174 112.741,247.414 112.832 C 247.654 112.923,248.240 113.069,248.716 113.156 C 249.193 113.242,250.033 113.426,250.583 113.564 C 251.133 113.702,251.958 113.903,252.417 114.010 C 252.875 114.117,253.325 114.264,253.417 114.337 C 253.508 114.409,253.941 114.522,254.377 114.587 C 254.814 114.652,255.212 114.771,255.262 114.853 C 255.312 114.934,255.517 115.000,255.718 115.001 C 255.919 115.002,256.298 115.114,256.561 115.251 C 256.823 115.388,257.311 115.498,257.644 115.496 L 258.250 115.492 257.482 114.788 C 255.796 113.241,254.017 111.654,252.750 110.566 C 252.017 109.937,251.222 109.233,250.984 109.003 C 250.746 108.772,250.186 108.283,249.740 107.917 C 249.293 107.550,248.476 106.832,247.923 106.322 C 247.369 105.812,246.542 105.099,246.084 104.739 C 245.625 104.378,245.169 104.008,245.069 103.917 C 244.970 103.825,244.579 103.499,244.202 103.193 C 243.824 102.886,243.332 102.474,243.108 102.276 C 242.884 102.078,242.455 101.729,242.153 101.500 C 241.852 101.271,241.488 100.967,241.344 100.824 C 241.201 100.682,240.746 100.308,240.333 99.993 C 239.921 99.679,239.499 99.345,239.396 99.252 C 238.390 98.345,237.022 97.187,236.375 96.696 C 235.940 96.365,235.508 96.034,235.417 95.961 C 234.697 95.384,234.470 95.209,234.062 94.917 C 233.806 94.733,232.981 94.096,232.230 93.500 C 231.478 92.904,230.700 92.304,230.502 92.167 C 230.046 91.851,229.269 91.230,228.508 90.573 C 228.183 90.293,227.429 89.700,226.833 89.256 C 226.237 88.811,225.725 88.384,225.694 88.307 C 225.664 88.230,225.567 88.167,225.479 88.167 C 225.391 88.167,225.229 88.090,225.118 87.996 C 224.353 87.348,222.754 86.139,222.336 85.892 C 222.060 85.728,221.833 85.536,221.833 85.464 C 221.833 85.392,221.753 85.333,221.654 85.333 C 221.497 85.333,219.557 83.937,219.333 83.663 C 219.239 83.548,217.236 82.049,216.664 81.667 C 216.459 81.529,215.589 80.910,214.730 80.292 C 212.776 78.883,212.816 78.879,212.935 80.458 " stroke="none" fill="#f3f3f4" fill-rule="evenodd"></path><path id="path2" d="M180.620 20.102 C 180.410 20.312,182.091 22.374,185.000 25.473 C 185.229 25.717,185.715 26.292,186.081 26.750 C 186.446 27.208,186.984 27.846,187.276 28.167 C 187.569 28.488,188.092 29.125,188.440 29.583 C 188.788 30.042,189.205 30.560,189.366 30.736 C 189.528 30.912,189.868 31.362,190.122 31.736 C 190.376 32.110,190.640 32.442,190.708 32.472 C 190.777 32.503,190.833 32.602,190.833 32.692 C 190.833 32.783,190.927 32.959,191.042 33.084 C 191.156 33.208,191.813 34.108,192.500 35.083 C 193.188 36.058,194.176 37.440,194.697 38.155 C 195.217 38.869,196.117 40.219,196.697 41.153 C 197.276 42.087,197.880 43.054,198.040 43.301 C 198.199 43.548,198.382 43.862,198.446 44.000 C 198.511 44.137,198.947 44.887,199.417 45.667 C 199.886 46.446,200.324 47.196,200.389 47.333 C 200.454 47.471,200.768 48.033,201.087 48.583 C 201.833 49.867,205.036 56.351,205.411 57.333 C 205.742 58.202,206.405 59.707,206.757 60.389 C 206.890 60.648,207.000 60.961,207.000 61.083 C 207.000 61.206,207.107 61.519,207.237 61.778 C 207.367 62.038,207.600 62.587,207.754 63.000 C 207.908 63.413,208.139 63.996,208.267 64.297 C 208.395 64.598,208.500 64.988,208.500 65.162 C 208.500 65.337,208.569 65.523,208.654 65.575 C 208.738 65.628,208.858 65.900,208.920 66.180 C 208.981 66.460,209.136 66.890,209.265 67.136 C 209.393 67.382,209.498 67.748,209.499 67.948 C 209.500 68.149,209.575 68.360,209.667 68.417 C 209.758 68.473,209.834 68.721,209.834 68.968 C 209.835 69.215,209.947 69.631,210.084 69.894 C 210.221 70.157,210.334 70.569,210.334 70.811 C 210.335 71.052,210.447 71.465,210.584 71.727 C 210.721 71.990,210.833 72.375,210.833 72.582 C 210.833 72.790,210.946 73.229,211.083 73.558 C 211.221 73.887,211.337 74.365,211.341 74.620 C 211.345 74.875,211.457 75.308,211.591 75.583 L 211.833 76.083 211.760 75.583 C 211.665 74.920,211.368 73.558,211.181 72.925 C 211.098 72.646,210.912 72.004,210.767 71.500 C 209.801 68.133,209.128 66.014,208.723 65.058 C 208.600 64.769,208.500 64.450,208.500 64.348 C 208.500 64.246,208.433 64.032,208.350 63.873 C 208.268 63.714,208.088 63.283,207.950 62.917 C 207.419 61.505,206.955 60.359,206.298 58.833 C 205.923 57.962,205.504 56.987,205.367 56.667 C 204.497 54.635,201.328 48.439,200.446 47.045 C 200.201 46.657,200.000 46.302,200.000 46.255 C 200.000 46.119,197.206 41.556,196.067 39.833 C 194.173 36.968,188.970 29.760,188.126 28.833 C 187.917 28.604,187.152 27.704,186.425 26.833 C 185.699 25.962,185.062 25.212,185.010 25.167 C 184.959 25.121,184.654 24.781,184.333 24.411 C 183.198 23.103,181.580 21.272,181.298 20.978 C 180.623 20.272,181.392 20.613,183.089 21.773 C 184.094 22.459,185.217 23.222,185.583 23.467 C 185.950 23.713,186.287 23.952,186.333 23.998 C 186.379 24.045,186.866 24.383,187.416 24.750 C 187.966 25.117,189.176 25.979,190.105 26.667 C 191.034 27.354,193.022 28.815,194.522 29.912 C 196.022 31.010,197.965 32.472,198.839 33.162 C 199.713 33.852,201.058 34.904,201.827 35.500 C 203.472 36.774,207.546 40.024,207.667 40.157 C 207.713 40.208,208.125 40.547,208.583 40.911 C 209.042 41.275,209.454 41.615,209.500 41.667 C 209.575 41.753,211.943 43.747,216.500 47.562 C 217.371 48.292,218.871 49.608,219.833 50.487 C 220.796 51.367,221.958 52.418,222.417 52.824 C 224.658 54.806,227.097 57.061,231.158 60.906 C 234.032 63.627,245.996 75.669,247.735 77.591 C 248.568 78.512,250.412 80.539,251.833 82.097 C 254.551 85.076,256.140 86.862,256.937 87.833 C 257.341 88.326,257.979 89.051,258.752 89.898 C 258.845 90.000,259.519 90.796,260.249 91.667 C 260.979 92.537,261.704 93.400,261.861 93.583 C 262.017 93.767,262.394 94.229,262.698 94.610 C 263.174 95.209,263.887 96.063,265.387 97.833 C 265.581 98.063,266.082 98.700,266.501 99.250 C 266.919 99.800,267.386 100.400,267.539 100.583 C 267.797 100.893,268.582 101.907,271.727 106.000 C 272.865 107.480,276.735 112.739,277.369 113.667 C 277.525 113.896,278.029 114.608,278.488 115.250 C 280.995 118.755,286.656 127.496,286.664 127.875 C 286.670 128.129,286.158 127.986,285.344 127.506 C 284.454 126.981,283.740 126.613,280.167 124.830 C 278.046 123.772,276.689 123.127,274.750 122.254 C 274.292 122.048,273.542 121.709,273.083 121.501 C 270.096 120.144,267.415 119.103,262.933 117.559 C 259.946 116.531,259.933 116.592,262.593 119.083 C 266.359 122.612,271.771 127.961,277.438 133.758 C 279.454 135.820,283.742 140.501,283.817 140.721 C 283.853 140.828,283.966 140.972,284.067 141.039 C 284.501 141.329,283.396 141.098,282.250 140.660 C 282.067 140.589,281.129 140.292,280.167 139.999 C 279.204 139.706,278.079 139.364,277.667 139.238 C 277.254 139.112,276.451 138.859,275.883 138.674 C 274.933 138.366,273.703 138.020,271.351 137.397 C 270.857 137.266,270.418 137.193,270.377 137.234 C 270.335 137.276,270.627 137.397,271.025 137.502 C 271.424 137.608,272.115 137.800,272.561 137.930 C 273.007 138.060,273.477 138.167,273.605 138.167 C 273.733 138.167,273.968 138.236,274.127 138.322 C 274.286 138.407,274.979 138.641,275.667 138.842 C 276.354 139.044,277.067 139.264,277.250 139.331 C 277.433 139.398,278.033 139.584,278.583 139.744 C 279.133 139.904,279.771 140.113,280.000 140.208 C 280.229 140.302,280.679 140.437,281.000 140.507 C 281.639 140.646,282.586 140.963,283.039 141.189 C 284.127 141.731,284.607 141.200,283.824 140.323 C 283.543 140.009,283.146 139.549,282.940 139.301 C 282.283 138.507,279.311 135.347,277.333 133.339 C 276.279 132.268,274.885 130.835,274.235 130.154 C 272.680 128.526,265.576 121.572,263.110 119.265 C 261.039 117.328,260.811 117.014,261.770 117.414 C 262.102 117.553,262.534 117.669,262.729 117.672 C 262.924 117.675,263.229 117.787,263.407 117.922 C 263.585 118.057,263.889 118.167,264.082 118.167 C 264.275 118.167,264.505 118.233,264.592 118.314 C 264.679 118.394,265.575 118.742,266.583 119.086 C 267.592 119.431,268.792 119.878,269.250 120.080 C 269.708 120.282,270.421 120.584,270.833 120.750 C 271.246 120.915,272.071 121.271,272.667 121.540 C 273.262 121.809,273.900 122.091,274.083 122.166 C 275.610 122.795,283.272 126.566,284.750 127.417 C 286.487 128.415,287.339 128.651,287.014 128.042 C 286.928 127.881,286.812 127.638,286.756 127.500 C 286.621 127.169,286.389 126.793,285.541 125.530 C 285.152 124.950,284.833 124.441,284.833 124.397 C 284.833 124.353,284.552 123.890,284.209 123.367 C 283.866 122.844,283.547 122.341,283.501 122.248 C 283.287 121.820,280.403 117.577,280.292 117.528 C 280.223 117.497,280.167 117.408,280.167 117.330 C 280.167 117.185,278.680 115.046,277.864 114.019 C 277.618 113.709,277.347 113.334,277.261 113.186 C 277.175 113.038,277.025 112.826,276.927 112.714 C 276.479 112.202,276.333 112.007,276.333 111.918 C 276.333 111.835,274.594 109.378,274.208 108.917 C 274.131 108.825,273.884 108.487,273.659 108.167 C 273.434 107.846,273.210 107.546,273.161 107.500 C 273.112 107.454,272.775 107.004,272.412 106.500 C 271.647 105.439,271.348 105.054,271.000 104.683 C 270.862 104.536,270.151 103.629,269.419 102.666 C 268.687 101.704,268.044 100.879,267.992 100.833 C 267.939 100.787,267.307 99.962,266.587 99.000 C 265.867 98.037,265.160 97.129,265.014 96.982 C 264.869 96.835,264.569 96.497,264.348 96.232 C 264.127 95.967,263.715 95.486,263.432 95.163 C 263.148 94.840,262.617 94.210,262.250 93.763 C 261.883 93.316,261.508 92.868,261.417 92.767 C 261.325 92.666,260.951 92.208,260.586 91.750 C 260.221 91.292,259.683 90.654,259.391 90.333 C 258.671 89.543,258.246 89.052,257.526 88.176 C 256.719 87.194,255.829 86.173,255.415 85.755 C 255.231 85.569,254.788 85.079,254.430 84.667 C 254.071 84.254,253.097 83.172,252.264 82.262 C 250.033 79.825,250.058 79.852,248.858 78.517 C 246.371 75.751,237.638 66.888,232.993 62.417 C 228.033 57.643,226.863 56.534,225.605 55.416 C 224.884 54.775,224.096 54.062,223.855 53.833 C 223.614 53.603,222.817 52.891,222.085 52.250 C 220.665 51.006,220.361 50.728,218.971 49.403 C 218.483 48.938,217.746 48.299,217.333 47.984 C 216.671 47.477,216.024 46.943,215.436 46.417 C 215.164 46.173,213.148 44.463,212.754 44.142 C 211.745 43.319,209.545 41.453,208.667 40.675 C 207.860 39.961,207.696 39.833,207.582 39.833 C 207.528 39.833,207.319 39.661,207.117 39.449 C 206.915 39.238,206.262 38.696,205.667 38.244 C 204.769 37.563,202.725 35.963,201.667 35.113 C 201.529 35.002,201.154 34.728,200.833 34.504 C 200.512 34.279,200.175 34.012,200.083 33.910 C 199.992 33.808,199.579 33.470,199.167 33.158 C 198.754 32.847,198.379 32.548,198.333 32.494 C 198.094 32.211,194.824 29.833,194.675 29.833 C 194.579 29.833,194.500 29.768,194.500 29.689 C 194.500 29.609,193.956 29.181,193.292 28.736 C 192.627 28.292,192.008 27.870,191.917 27.799 C 191.825 27.728,191.346 27.350,190.853 26.960 C 190.360 26.569,189.838 26.175,189.693 26.083 C 189.549 25.992,189.343 25.842,189.236 25.750 C 189.129 25.658,188.875 25.471,188.672 25.333 C 188.469 25.196,187.861 24.765,187.321 24.375 C 186.780 23.985,186.295 23.667,186.241 23.667 C 186.187 23.667,186.038 23.573,185.911 23.458 C 185.469 23.062,185.240 22.901,183.062 21.454 C 180.770 19.931,180.783 19.939,180.620 20.102 M113.836 22.753 C 113.952 22.892,114.467 23.324,114.982 23.712 C 118.646 26.471,123.671 31.080,126.753 34.506 C 127.210 35.014,127.883 35.762,128.250 36.167 C 128.971 36.966,129.675 37.817,130.333 38.688 C 130.563 38.991,130.881 39.373,131.042 39.536 C 131.202 39.700,131.333 39.908,131.333 40.000 C 131.333 40.092,131.396 40.167,131.472 40.167 C 131.548 40.167,131.851 40.502,132.146 40.913 C 132.441 41.323,132.941 41.934,133.258 42.270 C 133.574 42.605,133.835 42.926,133.836 42.982 C 133.837 43.038,134.072 43.346,134.357 43.667 C 134.643 43.987,135.073 44.550,135.313 44.917 C 135.553 45.283,135.842 45.681,135.955 45.800 C 136.067 45.919,136.817 47.007,137.621 48.217 C 138.425 49.427,139.158 50.508,139.250 50.619 C 139.341 50.731,139.510 50.934,139.625 51.071 C 139.740 51.207,139.833 51.355,139.833 51.399 C 139.833 51.443,140.152 51.957,140.542 52.541 C 141.543 54.043,141.655 54.219,141.781 54.500 C 141.842 54.637,141.936 54.788,141.989 54.833 C 142.162 54.982,143.617 57.232,143.974 57.903 C 144.165 58.262,144.380 58.600,144.452 58.653 C 144.524 58.707,144.715 58.994,144.875 59.292 C 145.035 59.590,145.298 60.077,145.458 60.375 C 145.619 60.673,145.806 60.942,145.875 60.972 C 145.944 61.003,146.000 61.098,146.000 61.184 C 146.000 61.270,146.205 61.657,146.455 62.045 C 147.067 62.993,147.231 63.275,147.739 64.250 C 147.977 64.708,148.265 65.230,148.378 65.410 C 149.313 66.900,150.032 68.236,152.328 72.750 C 153.400 74.858,154.360 76.733,154.461 76.917 C 154.971 77.842,156.667 81.474,156.667 81.641 C 156.667 81.747,156.742 81.833,156.833 81.833 C 156.925 81.833,157.000 81.921,157.000 82.028 C 157.000 82.136,157.214 82.680,157.474 83.237 C 157.735 83.794,158.082 84.587,158.244 85.000 C 158.407 85.412,158.599 85.900,158.672 86.083 C 158.745 86.267,159.040 86.942,159.329 87.583 C 160.335 89.823,160.657 90.570,161.083 91.667 C 161.244 92.079,161.491 92.679,161.633 93.000 C 162.034 93.910,162.408 94.836,162.910 96.167 C 163.066 96.579,163.300 97.129,163.430 97.389 C 163.560 97.648,163.667 97.960,163.667 98.081 C 163.667 98.203,163.892 98.804,164.167 99.417 C 164.442 100.030,164.669 100.655,164.672 100.807 C 164.675 100.959,164.787 101.229,164.922 101.407 C 165.057 101.585,165.167 101.899,165.167 102.105 C 165.167 102.312,165.236 102.523,165.321 102.575 C 165.405 102.628,165.527 102.911,165.592 103.205 C 165.656 103.499,165.763 103.854,165.830 103.995 C 166.277 104.939,166.735 106.150,167.029 107.167 C 167.122 107.487,167.266 107.821,167.349 107.908 C 167.432 107.995,167.500 108.220,167.501 108.408 C 167.502 108.596,167.614 108.965,167.751 109.227 C 167.888 109.490,168.003 109.827,168.006 109.977 C 168.012 110.261,168.484 111.191,168.494 110.940 C 168.501 110.774,167.178 106.850,166.660 105.500 C 166.467 104.996,166.244 104.396,166.165 104.167 C 166.087 103.938,165.785 103.112,165.496 102.333 C 165.206 101.554,164.893 100.692,164.801 100.417 C 164.709 100.142,164.540 99.692,164.425 99.417 C 164.311 99.142,164.122 98.654,164.007 98.333 C 163.892 98.013,163.700 97.525,163.581 97.250 C 163.462 96.975,163.251 96.450,163.112 96.083 C 162.630 94.807,161.304 91.577,160.903 90.704 C 160.682 90.220,160.500 89.729,160.500 89.612 C 160.500 89.495,160.433 89.329,160.350 89.242 C 160.268 89.155,159.774 88.071,159.252 86.833 C 158.730 85.596,158.132 84.208,157.922 83.750 C 157.712 83.292,157.214 82.204,156.814 81.333 C 155.392 78.233,149.775 67.192,149.267 66.500 C 149.071 66.234,149.037 66.174,148.131 64.500 C 147.809 63.904,147.403 63.180,147.231 62.892 C 146.517 61.698,145.938 60.707,145.540 60.000 C 145.309 59.587,144.961 59.027,144.768 58.753 C 144.372 58.194,144.070 57.702,143.894 57.333 C 143.348 56.184,136.441 45.969,134.992 44.167 C 134.660 43.754,133.499 42.292,132.411 40.917 C 126.827 33.857,122.035 29.007,115.788 24.095 C 114.628 23.183,115.205 23.060,116.947 23.847 C 118.731 24.653,119.035 24.788,119.834 25.135 C 120.563 25.450,121.852 26.027,123.290 26.679 C 123.678 26.856,124.039 27.000,124.091 27.000 C 124.191 27.000,126.403 28.033,128.917 29.253 C 129.742 29.653,131.270 30.379,132.313 30.865 C 134.487 31.880,141.748 35.505,145.378 37.390 C 147.792 38.643,148.194 38.850,148.803 39.149 C 149.069 39.280,152.043 40.884,153.917 41.908 C 156.135 43.120,157.094 43.646,158.583 44.469 C 159.500 44.975,160.727 45.641,161.309 45.948 C 161.892 46.255,163.055 46.907,163.893 47.397 C 168.279 49.962,169.461 50.649,169.917 50.898 C 170.192 51.048,170.564 51.264,170.744 51.377 C 171.284 51.718,172.200 52.253,173.083 52.743 C 173.542 52.997,174.916 53.816,176.138 54.561 C 177.360 55.307,178.672 56.097,179.055 56.318 C 179.437 56.539,180.313 57.077,181.000 57.513 C 181.688 57.950,183.252 58.931,184.476 59.695 C 185.700 60.459,186.825 61.161,186.976 61.255 C 187.127 61.350,187.700 61.725,188.250 62.088 C 188.800 62.452,189.325 62.788,189.417 62.833 C 189.508 62.879,190.592 63.583,191.825 64.398 C 195.114 66.570,196.396 67.406,196.583 67.500 C 196.829 67.623,199.672 69.553,203.083 71.913 C 204.733 73.054,206.571 74.323,207.167 74.733 C 209.341 76.226,210.145 76.789,210.961 77.388 C 211.733 77.955,212.343 78.172,212.326 77.875 C 212.322 77.806,212.214 77.375,212.087 76.917 L 211.856 76.083 211.845 76.792 C 211.829 77.800,211.945 77.857,207.333 74.574 C 206.371 73.889,205.433 73.262,205.250 73.180 C 205.067 73.099,204.767 72.891,204.583 72.719 C 204.400 72.547,203.950 72.225,203.583 72.003 C 203.217 71.782,202.879 71.559,202.833 71.507 C 202.787 71.456,202.188 71.044,201.500 70.592 C 200.813 70.139,200.204 69.702,200.148 69.620 C 200.091 69.537,199.892 69.383,199.705 69.277 C 199.518 69.170,198.702 68.635,197.891 68.086 C 197.080 67.538,196.154 66.949,195.833 66.777 C 195.512 66.604,195.132 66.359,194.987 66.232 C 194.842 66.104,194.642 66.000,194.542 66.000 C 194.443 66.000,194.336 65.944,194.306 65.875 C 194.248 65.746,193.669 65.357,189.417 62.590 C 188.042 61.696,186.713 60.822,186.465 60.649 C 186.217 60.475,185.972 60.333,185.922 60.333 C 185.872 60.333,185.520 60.108,185.140 59.833 C 184.761 59.558,184.355 59.333,184.239 59.333 C 184.123 59.333,184.003 59.277,183.972 59.208 C 183.893 59.029,182.876 58.333,182.694 58.333 C 182.610 58.333,182.453 58.228,182.346 58.099 C 182.239 57.970,181.911 57.739,181.617 57.587 C 180.813 57.168,180.393 56.923,180.143 56.724 C 180.018 56.625,179.467 56.298,178.917 55.997 C 178.367 55.696,177.879 55.396,177.833 55.331 C 177.787 55.265,177.450 55.049,177.083 54.851 C 176.717 54.653,176.192 54.344,175.917 54.164 C 175.642 53.985,175.267 53.761,175.083 53.667 C 174.900 53.572,174.525 53.347,174.250 53.166 C 173.975 52.985,173.637 52.780,173.500 52.710 C 173.175 52.544,170.848 51.213,169.856 50.626 C 169.431 50.374,168.896 50.075,168.667 49.961 C 168.438 49.847,168.151 49.659,168.030 49.544 C 167.909 49.428,167.741 49.333,167.657 49.333 C 167.573 49.333,166.457 48.696,165.176 47.917 C 163.896 47.137,162.779 46.500,162.695 46.500 C 162.610 46.500,162.447 46.387,162.333 46.250 C 162.219 46.112,162.024 46.000,161.899 46.000 C 161.775 46.000,161.202 45.714,160.628 45.365 C 160.053 45.015,159.246 44.557,158.833 44.347 C 157.793 43.817,156.582 43.168,155.500 42.559 C 154.996 42.276,154.058 41.762,153.417 41.419 C 152.775 41.075,152.132 40.690,151.987 40.563 C 151.842 40.437,151.608 40.333,151.466 40.333 C 151.324 40.333,151.114 40.221,151.000 40.083 C 150.886 39.946,150.658 39.833,150.493 39.833 C 150.329 39.833,150.169 39.773,150.139 39.700 C 150.108 39.626,148.883 38.959,147.417 38.217 C 143.779 36.376,142.931 35.933,142.833 35.821 C 142.787 35.768,141.737 35.221,140.500 34.604 C 139.262 33.987,138.137 33.417,138.000 33.336 C 137.728 33.178,134.062 31.434,133.250 31.078 C 132.738 30.853,131.387 30.226,129.380 29.282 C 128.759 28.989,128.212 28.712,128.167 28.667 C 128.121 28.621,127.783 28.446,127.417 28.277 C 127.050 28.109,126.538 27.865,126.278 27.736 C 126.019 27.606,125.700 27.500,125.570 27.500 C 125.440 27.500,125.333 27.426,125.333 27.337 C 125.333 27.247,125.132 27.123,124.886 27.061 C 124.640 26.999,124.246 26.848,124.011 26.725 C 123.776 26.603,123.507 26.502,123.414 26.501 C 123.320 26.500,122.647 26.200,121.917 25.833 C 121.187 25.467,120.532 25.167,120.462 25.167 C 120.392 25.167,119.828 24.934,119.209 24.650 C 118.590 24.366,117.821 24.023,117.500 23.888 C 116.811 23.597,115.867 23.175,115.461 22.975 C 115.301 22.897,115.025 22.833,114.845 22.833 C 114.666 22.833,114.473 22.758,114.417 22.667 C 114.360 22.575,114.159 22.500,113.970 22.500 C 113.681 22.500,113.660 22.541,113.836 22.753 M115.167 23.167 C 115.167 23.375,114.990 23.375,114.667 23.167 C 114.465 23.036,114.488 23.005,114.792 23.003 C 114.998 23.001,115.167 23.075,115.167 23.167 M212.587 79.542 C 212.908 81.705,212.985 81.940,212.914 80.542 C 212.829 78.875,212.775 78.882,214.730 80.292 C 215.589 80.910,216.459 81.529,216.664 81.667 C 217.236 82.049,219.239 83.548,219.333 83.663 C 219.557 83.937,221.497 85.333,221.654 85.333 C 221.753 85.333,221.833 85.392,221.833 85.464 C 221.833 85.536,222.060 85.728,222.336 85.892 C 222.754 86.139,224.353 87.348,225.118 87.996 C 225.229 88.090,225.391 88.167,225.479 88.167 C 225.567 88.167,225.664 88.230,225.694 88.307 C 225.725 88.384,226.237 88.811,226.833 89.256 C 227.429 89.700,228.183 90.293,228.508 90.573 C 229.269 91.230,230.046 91.851,230.502 92.167 C 230.700 92.304,231.478 92.904,232.230 93.500 C 232.981 94.096,233.806 94.733,234.062 94.917 C 234.470 95.209,234.697 95.384,235.417 95.961 C 235.508 96.034,235.940 96.365,236.375 96.696 C 237.022 97.187,238.390 98.345,239.396 99.252 C 239.499 99.345,239.921 99.679,240.333 99.993 C 240.746 100.308,241.201 100.682,241.344 100.824 C 241.488 100.967,241.852 101.271,242.153 101.500 C 242.455 101.729,242.884 102.078,243.108 102.276 C 243.332 102.474,243.824 102.886,244.202 103.193 C 244.579 103.499,244.970 103.825,245.069 103.917 C 245.169 104.008,245.625 104.378,246.084 104.739 C 246.542 105.099,247.369 105.812,247.923 106.322 C 248.476 106.832,249.293 107.550,249.740 107.917 C 250.186 108.283,250.746 108.772,250.984 109.003 C 251.222 109.233,252.017 109.937,252.750 110.566 C 254.017 111.654,255.796 113.241,257.482 114.788 L 258.250 115.492 257.644 115.496 C 257.311 115.498,256.823 115.388,256.561 115.251 C 256.298 115.114,255.919 115.002,255.718 115.001 C 255.517 115.000,255.312 114.934,255.262 114.853 C 255.212 114.771,254.814 114.652,254.377 114.587 C 253.941 114.522,253.508 114.409,253.417 114.337 C 253.325 114.264,252.875 114.117,252.417 114.010 C 251.958 113.903,251.133 113.702,250.583 113.564 C 250.033 113.426,249.193 113.242,248.716 113.156 C 248.240 113.069,247.654 112.923,247.414 112.832 C 247.174 112.741,246.664 112.673,246.281 112.680 C 245.739 112.690,245.975 112.778,247.333 113.073 C 250.128 113.680,251.353 113.969,252.333 114.252 C 252.838 114.398,253.512 114.575,253.833 114.646 C 254.154 114.717,255.092 114.981,255.917 115.233 C 256.742 115.486,257.647 115.761,257.928 115.846 C 259.469 116.310,259.335 116.104,256.418 113.520 C 255.318 112.547,254.268 111.597,254.084 111.411 C 253.900 111.224,252.925 110.362,251.917 109.495 C 249.999 107.845,249.666 107.556,248.167 106.237 C 246.797 105.032,247.147 105.325,241.517 100.687 C 241.114 100.355,240.701 100.006,240.600 99.911 C 240.499 99.816,239.892 99.315,239.250 98.799 C 238.608 98.282,237.858 97.668,237.583 97.433 C 237.036 96.966,237.075 96.998,236.000 96.169 C 235.588 95.852,235.213 95.552,235.167 95.502 C 235.121 95.453,234.296 94.814,233.333 94.083 C 232.371 93.352,231.433 92.630,231.250 92.478 C 231.067 92.326,230.242 91.671,229.417 91.023 C 228.592 90.374,227.835 89.775,227.735 89.690 C 226.825 88.922,213.524 79.110,213.053 78.860 C 212.484 78.558,212.449 78.610,212.587 79.542 M213.108 83.167 C 213.165 83.854,213.272 85.129,213.344 86.000 C 213.461 87.411,213.468 87.330,213.412 85.250 C 213.377 83.967,213.270 82.692,213.175 82.417 C 213.041 82.028,213.026 82.195,213.108 83.167 M213.544 90.417 C 213.543 92.615,213.562 92.792,213.702 91.879 C 213.803 91.223,213.803 90.304,213.704 89.379 C 213.546 87.919,213.546 87.921,213.544 90.417 M213.278 94.792 C 213.221 95.685,213.134 96.754,213.083 97.167 C 213.004 97.820,213.017 97.863,213.181 97.500 C 213.367 97.089,213.623 93.167,213.464 93.167 C 213.419 93.167,213.335 93.898,213.278 94.792 M212.862 98.474 C 212.807 99.538,211.818 103.865,211.008 106.583 C 210.873 107.039,210.132 109.072,209.685 110.214 C 209.428 110.872,209.721 110.937,211.738 110.669 C 212.760 110.533,216.059 110.407,220.167 110.348 C 225.866 110.265,226.550 110.231,224.559 110.129 C 221.848 109.990,211.993 110.256,210.950 110.497 C 209.858 110.749,209.862 110.751,210.072 109.958 C 210.175 109.569,210.351 109.086,210.463 108.886 C 210.575 108.686,210.667 108.413,210.667 108.280 C 210.667 108.147,210.779 107.823,210.916 107.561 C 211.053 107.298,211.165 106.930,211.166 106.742 C 211.166 106.554,211.230 106.329,211.307 106.242 C 211.447 106.084,211.726 105.034,212.256 102.667 C 212.410 101.979,212.646 100.967,212.780 100.417 C 212.915 99.867,212.995 99.079,212.958 98.667 C 212.906 98.074,212.885 98.034,212.862 98.474 M229.083 110.502 C 232.039 110.688,235.199 110.971,236.378 111.156 C 236.949 111.246,238.204 111.439,239.167 111.586 C 240.129 111.732,241.316 111.930,241.805 112.024 C 242.293 112.119,242.735 112.154,242.787 112.102 C 242.932 111.957,242.528 111.850,241.167 111.673 C 240.479 111.583,239.204 111.394,238.333 111.253 C 235.278 110.755,232.226 110.462,229.667 110.419 L 227.083 110.377 229.083 110.502 M168.500 111.319 C 168.500 111.434,168.683 112.065,168.907 112.722 C 169.130 113.379,169.364 114.199,169.425 114.544 C 169.487 114.888,169.604 115.211,169.686 115.262 C 169.767 115.312,169.833 115.543,169.833 115.776 C 169.833 116.008,169.937 116.398,170.063 116.641 C 170.275 117.050,170.394 117.442,170.851 119.250 C 170.943 119.617,171.090 119.988,171.176 120.075 C 171.377 120.277,171.383 119.979,171.188 119.466 C 171.108 119.256,170.913 118.633,170.754 118.083 C 170.595 117.533,170.369 116.783,170.252 116.417 C 170.135 116.050,169.909 115.300,169.750 114.750 C 169.107 112.522,168.500 110.856,168.500 111.319 M243.583 112.315 C 245.336 112.666,245.595 112.693,245.276 112.492 C 245.106 112.386,244.506 112.272,243.942 112.240 C 243.080 112.191,243.023 112.203,243.583 112.315 M171.359 120.667 C 171.351 120.896,171.452 121.271,171.583 121.500 C 171.800 121.879,171.822 121.886,171.827 121.575 C 171.831 121.387,171.766 121.162,171.683 121.075 C 171.600 120.988,171.496 120.767,171.452 120.583 C 171.387 120.312,171.370 120.327,171.359 120.667 M171.905 122.417 C 171.944 122.692,172.090 123.367,172.229 123.917 C 172.368 124.467,172.569 125.292,172.675 125.750 C 172.781 126.208,172.936 126.655,173.018 126.742 C 173.100 126.829,173.167 127.117,173.167 127.383 C 173.167 127.649,173.269 128.103,173.394 128.391 C 173.605 128.879,173.825 129.770,174.141 131.417 C 174.211 131.783,174.363 132.233,174.478 132.417 C 174.726 132.813,174.702 132.637,174.257 130.833 C 174.110 130.237,173.925 129.487,173.845 129.167 C 173.766 128.846,173.470 127.721,173.186 126.667 C 172.903 125.612,172.585 124.412,172.479 124.000 C 172.163 122.766,171.820 121.821,171.905 122.417 M210.083 131.181 L 206.583 131.479 209.583 131.410 C 211.233 131.372,212.921 131.268,213.333 131.178 C 214.584 130.905,229.879 130.962,232.250 131.248 C 233.350 131.381,235.225 131.481,236.417 131.470 L 238.583 131.450 236.833 131.325 C 235.871 131.256,233.996 131.119,232.667 131.019 C 228.718 130.721,214.266 130.825,210.083 131.181 M204.000 131.687 C 201.298 131.993,195.314 132.878,193.583 133.227 C 193.400 133.264,193.550 133.303,193.917 133.313 C 194.283 133.323,194.856 133.256,195.190 133.163 C 195.523 133.070,196.385 132.923,197.106 132.835 C 197.827 132.747,199.167 132.559,200.083 132.418 C 201.000 132.277,202.612 132.084,203.667 131.989 C 205.776 131.799,207.147 131.524,205.917 131.537 C 205.550 131.541,204.688 131.609,204.000 131.687 M239.167 131.657 C 239.736 131.805,242.663 132.132,244.500 132.253 C 245.967 132.349,244.473 132.059,242.417 131.848 C 239.423 131.540,238.514 131.487,239.167 131.657 M246.167 132.506 C 248.918 132.977,250.387 133.187,251.333 133.247 C 252.682 133.332,251.694 133.121,249.417 132.839 C 248.683 132.748,247.821 132.597,247.501 132.504 C 247.181 132.410,246.581 132.343,246.168 132.356 L 245.417 132.378 246.167 132.506 M174.691 133.250 C 174.686 133.525,174.791 133.975,174.925 134.250 C 175.199 134.813,175.176 134.495,174.860 133.333 L 174.701 132.750 174.691 133.250 M191.667 133.514 C 191.346 133.591,190.521 133.772,189.833 133.917 C 186.646 134.588,184.270 135.139,180.917 135.983 C 178.935 136.481,178.489 136.635,178.969 136.652 C 179.182 136.660,179.491 136.594,179.656 136.506 C 179.821 136.417,180.360 136.271,180.853 136.181 C 182.493 135.883,183.413 135.670,183.750 135.513 C 183.933 135.427,184.438 135.309,184.871 135.252 C 185.304 135.194,185.703 135.077,185.756 134.990 C 185.809 134.904,186.151 134.833,186.515 134.833 C 186.879 134.833,187.447 134.721,187.776 134.583 C 188.105 134.446,188.577 134.333,188.824 134.333 C 189.071 134.333,189.606 134.226,190.012 134.095 C 190.418 133.965,191.163 133.811,191.668 133.755 C 192.638 133.647,193.453 133.322,192.667 133.357 C 192.438 133.367,191.987 133.438,191.667 133.514 M253.083 133.588 C 253.450 133.709,254.035 133.813,254.382 133.821 C 255.027 133.834,256.576 134.154,258.098 134.590 C 258.564 134.724,259.188 134.833,259.484 134.833 C 259.780 134.833,260.177 134.916,260.366 135.017 C 260.555 135.118,261.093 135.265,261.563 135.343 C 262.033 135.421,262.923 135.600,263.542 135.742 C 266.191 136.349,266.954 136.508,267.583 136.582 L 268.250 136.660 267.667 136.487 C 267.346 136.392,266.738 136.250,266.315 136.171 C 265.893 136.092,265.255 135.950,264.899 135.855 C 264.079 135.637,262.444 135.259,260.833 134.914 C 260.146 134.767,259.096 134.540,258.500 134.411 C 257.904 134.282,256.779 134.058,256.000 133.914 C 255.221 133.770,254.264 133.580,253.873 133.493 C 252.806 133.253,252.266 133.319,253.083 133.588 M175.178 135.273 C 175.172 135.560,175.276 136.047,175.410 136.356 C 175.717 137.064,175.723 136.672,175.421 135.583 C 175.221 134.866,175.188 134.822,175.178 135.273 M177.618 136.850 C 177.454 136.946,176.949 137.037,176.495 137.054 C 176.030 137.070,175.694 137.156,175.727 137.250 C 175.790 137.434,176.085 137.425,177.088 137.205 C 177.838 137.041,178.582 136.677,178.167 136.677 C 178.029 136.677,177.782 136.755,177.618 136.850 M268.917 136.923 C 269.192 137.049,269.604 137.152,269.833 137.152 C 270.162 137.152,270.109 137.101,269.583 136.912 C 268.743 136.609,268.249 136.617,268.917 136.923 " stroke="none" fill="#8fa8bc" fill-rule="evenodd"></path><path id="path3" d="M181.121 20.631 C 181.088 20.696,181.286 20.975,181.560 21.250 C 181.835 21.525,181.962 21.619,181.842 21.458 C 181.529 21.036,181.904 21.076,182.546 21.533 C 182.829 21.734,183.008 21.815,182.945 21.713 C 182.772 21.433,181.188 20.493,181.121 20.631 M114.750 23.201 C 114.933 23.306,115.178 23.510,115.294 23.655 C 115.467 23.868,115.469 23.832,115.309 23.458 C 115.183 23.164,114.989 23.002,114.765 23.005 C 114.420 23.010,114.420 23.012,114.750 23.201 M242.333 72.083 C 242.644 72.404,242.936 72.667,242.982 72.667 C 243.028 72.667,242.811 72.404,242.500 72.083 C 242.189 71.762,241.897 71.500,241.851 71.500 C 241.805 71.500,242.022 71.762,242.333 72.083 M213.390 88.750 C 213.391 89.483,213.420 89.763,213.456 89.371 C 213.491 88.979,213.490 88.379,213.454 88.037 C 213.419 87.696,213.390 88.017,213.390 88.750 M213.383 92.333 C 213.383 92.837,213.415 93.044,213.453 92.792 C 213.491 92.540,213.491 92.127,213.453 91.875 C 213.415 91.623,213.383 91.829,213.383 92.333 M215.625 110.454 C 215.923 110.491,216.410 110.491,216.708 110.454 C 217.006 110.417,216.762 110.387,216.167 110.387 C 215.571 110.387,215.327 110.417,215.625 110.454 M226.375 110.448 C 226.535 110.490,226.798 110.490,226.958 110.448 C 227.119 110.406,226.987 110.372,226.667 110.372 C 226.346 110.372,226.215 110.406,226.375 110.448 M285.942 127.875 C 285.985 127.944,286.165 128.000,286.343 128.000 C 286.521 128.000,286.667 127.944,286.667 127.875 C 286.667 127.806,286.486 127.750,286.266 127.750 C 286.046 127.750,285.900 127.806,285.942 127.875 M220.625 130.791 C 221.656 130.820,223.344 130.820,224.375 130.791 C 225.406 130.762,224.563 130.738,222.500 130.738 C 220.438 130.738,219.594 130.762,220.625 130.791 M283.458 140.333 C 283.748 140.657,283.719 140.833,283.375 140.836 C 283.126 140.838,283.120 140.862,283.333 141.000 C 283.471 141.089,283.733 141.157,283.917 141.151 C 284.100 141.145,284.156 141.103,284.042 141.056 C 283.927 141.010,283.833 140.875,283.833 140.757 C 283.833 140.638,283.702 140.441,283.542 140.320 C 283.294 140.132,283.281 140.134,283.458 140.333 " stroke="none" fill="#778c9f" fill-rule="evenodd"></path><path id="path4" d="M181.855 21.458 C 181.980 21.619,182.122 21.787,182.170 21.833 C 183.128 22.758,188.805 29.562,190.412 31.713 C 190.944 32.425,191.415 32.974,191.457 32.932 C 191.499 32.890,191.339 32.645,191.100 32.388 C 190.862 32.130,190.667 31.868,190.667 31.805 C 190.667 31.742,190.571 31.591,190.453 31.470 C 190.336 31.349,189.871 30.762,189.420 30.167 C 188.710 29.226,187.247 27.414,187.000 27.167 C 186.954 27.121,186.619 26.714,186.256 26.262 C 185.893 25.810,185.442 25.275,185.254 25.072 C 185.066 24.869,184.501 24.231,183.998 23.653 C 183.495 23.075,182.952 22.467,182.792 22.301 C 181.992 21.475,184.650 22.861,185.622 23.777 C 185.846 23.988,188.007 25.476,188.499 25.758 C 188.667 25.854,189.120 26.192,189.505 26.508 C 189.891 26.824,190.328 27.153,190.476 27.239 C 190.625 27.324,190.897 27.536,191.081 27.708 C 191.266 27.881,191.679 28.183,192.000 28.379 C 192.803 28.871,197.146 32.107,197.707 32.632 C 197.958 32.867,198.206 33.016,198.258 32.964 C 198.311 32.911,197.880 32.508,197.302 32.067 C 196.723 31.626,196.213 31.225,196.167 31.174 C 196.121 31.124,195.708 30.825,195.250 30.509 C 194.792 30.192,194.379 29.889,194.333 29.834 C 194.287 29.779,193.575 29.253,192.750 28.664 C 191.925 28.075,190.381 26.948,189.320 26.158 C 185.360 23.215,181.157 20.569,181.855 21.458 M115.333 23.463 C 115.333 23.613,115.305 23.588,117.833 25.664 C 124.177 30.873,132.122 39.722,137.588 47.667 C 141.158 52.855,146.065 60.588,147.542 63.353 C 148.439 65.031,150.071 67.818,150.126 67.763 C 150.187 67.702,149.805 66.974,148.720 65.083 C 148.510 64.717,148.285 64.304,148.221 64.167 C 148.157 64.029,147.833 63.467,147.500 62.917 C 147.167 62.367,146.843 61.804,146.779 61.667 C 146.715 61.529,146.515 61.192,146.334 60.917 C 146.153 60.642,145.936 60.267,145.852 60.083 C 145.769 59.900,145.505 59.465,145.267 59.118 C 145.028 58.770,144.833 58.423,144.833 58.346 C 144.833 58.270,144.728 58.120,144.599 58.013 C 144.470 57.906,144.239 57.578,144.087 57.284 C 143.594 56.336,143.025 55.436,141.185 52.694 C 140.487 51.655,139.841 50.680,139.749 50.527 C 139.559 50.214,138.512 48.661,137.656 47.422 C 137.341 46.967,136.915 46.405,136.708 46.174 C 136.502 45.943,136.333 45.702,136.333 45.639 C 136.333 45.575,136.240 45.424,136.125 45.303 C 136.010 45.182,135.469 44.482,134.922 43.749 C 133.970 42.474,132.019 40.008,131.824 39.833 C 131.773 39.787,131.623 39.594,131.490 39.402 C 131.020 38.723,127.974 35.166,126.953 34.105 C 126.566 33.703,125.790 32.896,125.228 32.312 C 123.201 30.205,120.000 27.186,118.474 25.941 C 116.240 24.120,116.109 24.002,116.213 23.898 C 116.264 23.847,116.578 23.934,116.909 24.091 C 117.241 24.248,117.549 24.340,117.593 24.296 C 117.744 24.145,115.993 23.513,115.718 23.619 C 115.536 23.689,115.485 23.659,115.566 23.528 C 115.632 23.421,115.607 23.333,115.510 23.333 C 115.413 23.333,115.333 23.392,115.333 23.463 M118.088 24.553 C 118.269 24.674,118.829 24.945,119.333 25.156 C 119.837 25.366,120.662 25.727,121.167 25.958 C 121.671 26.189,122.308 26.474,122.583 26.592 C 122.858 26.710,123.738 27.113,124.538 27.487 C 125.338 27.861,126.038 28.167,126.093 28.167 C 126.148 28.167,127.106 28.612,128.221 29.156 C 129.337 29.701,131.150 30.571,132.250 31.089 C 134.728 32.258,143.070 36.419,144.394 37.146 C 144.932 37.442,145.406 37.650,145.448 37.608 C 145.561 37.494,134.406 31.846,130.417 29.997 C 129.775 29.700,128.537 29.121,127.667 28.711 C 123.880 26.929,123.308 26.667,123.215 26.667 C 123.160 26.667,122.733 26.488,122.266 26.269 C 119.013 24.746,117.363 24.069,118.088 24.553 M198.500 33.126 C 198.500 33.205,199.006 33.639,199.625 34.092 C 200.580 34.790,202.520 36.304,203.751 37.310 C 203.934 37.460,204.422 37.844,204.834 38.162 C 205.246 38.481,205.621 38.783,205.667 38.834 C 205.713 38.884,206.537 39.560,207.500 40.334 C 209.198 41.701,209.844 42.234,210.231 42.587 C 210.333 42.680,210.789 43.055,211.245 43.420 C 212.427 44.366,212.844 44.714,213.149 45.009 C 213.296 45.151,213.865 45.639,214.412 46.092 C 214.960 46.546,215.560 47.069,215.745 47.256 C 215.931 47.443,216.421 47.854,216.833 48.170 C 217.246 48.486,217.665 48.821,217.765 48.914 C 217.948 49.084,220.891 51.771,221.237 52.083 C 221.338 52.175,222.020 52.775,222.752 53.417 C 224.461 54.915,225.174 55.561,226.228 56.564 C 226.699 57.011,227.975 58.211,229.066 59.230 C 232.736 62.661,239.826 69.671,243.603 73.604 C 244.142 74.165,245.258 75.328,246.083 76.187 C 246.908 77.047,247.949 78.162,248.396 78.667 C 248.843 79.171,249.636 80.033,250.158 80.583 C 250.680 81.133,251.635 82.183,252.281 82.917 C 252.927 83.650,253.714 84.523,254.032 84.856 C 254.349 85.189,254.978 85.901,255.429 86.437 C 256.243 87.403,257.185 88.479,257.667 88.991 C 257.918 89.258,259.294 90.883,259.917 91.648 C 260.100 91.873,260.362 92.177,260.500 92.323 C 260.637 92.469,261.237 93.186,261.833 93.917 C 262.429 94.648,263.083 95.434,263.286 95.665 C 263.942 96.409,265.573 98.399,266.040 99.027 C 266.290 99.363,266.591 99.738,266.709 99.861 C 266.827 99.983,267.405 100.721,267.994 101.500 C 268.584 102.279,269.163 103.016,269.283 103.137 C 269.402 103.258,269.500 103.409,269.500 103.472 C 269.500 103.535,269.672 103.773,269.882 104.002 C 270.092 104.230,270.969 105.354,271.831 106.500 C 272.692 107.646,273.457 108.608,273.532 108.639 C 273.606 108.669,273.667 108.761,273.667 108.843 C 273.667 108.924,274.548 110.194,275.625 111.664 C 278.176 115.145,279.528 117.081,281.332 119.833 C 282.143 121.071,282.869 122.162,282.945 122.259 C 283.021 122.356,283.173 122.581,283.283 122.759 C 283.393 122.937,283.805 123.598,284.200 124.227 C 284.594 124.856,284.992 125.495,285.083 125.647 C 285.175 125.799,285.419 126.159,285.625 126.446 C 285.961 126.914,286.126 127.500,285.922 127.500 C 285.751 127.500,284.413 126.756,284.361 126.632 C 284.331 126.560,284.181 126.501,284.028 126.503 C 283.715 126.507,284.959 127.318,285.797 127.657 C 286.098 127.779,286.389 127.833,286.444 127.778 C 286.549 127.673,285.267 125.414,284.885 125.030 C 284.765 124.909,284.667 124.741,284.667 124.658 C 284.667 124.506,284.331 123.986,281.316 119.467 C 279.364 116.542,279.112 116.180,276.110 112.000 C 273.940 108.977,272.206 106.660,269.750 103.498 C 269.200 102.790,268.188 101.477,267.500 100.579 C 266.813 99.682,265.800 98.407,265.250 97.745 C 264.700 97.083,263.576 95.726,262.752 94.729 C 261.928 93.732,261.215 92.879,261.168 92.833 C 261.121 92.787,260.544 92.104,259.885 91.314 C 259.227 90.524,258.588 89.774,258.467 89.647 C 258.345 89.521,257.536 88.592,256.669 87.583 C 255.801 86.575,255.050 85.712,255.000 85.667 C 254.949 85.621,254.277 84.871,253.505 84.000 C 245.043 74.444,231.595 60.993,222.167 52.654 C 221.296 51.883,220.208 50.902,219.750 50.472 C 219.292 50.042,218.620 49.442,218.257 49.137 C 217.894 48.833,216.581 47.718,215.340 46.661 C 211.272 43.195,208.774 41.105,207.085 39.750 C 206.170 39.017,205.270 38.294,205.086 38.143 C 204.901 37.992,203.963 37.249,203.000 36.490 C 202.037 35.732,200.912 34.842,200.500 34.511 C 199.149 33.430,198.500 32.981,198.500 33.126 M192.031 33.921 C 193.871 36.432,196.913 40.975,198.281 43.254 C 198.895 44.275,200.693 47.370,201.088 48.083 C 201.607 49.021,202.000 49.622,202.000 49.477 C 202.000 49.352,201.062 47.593,200.591 46.836 C 200.390 46.514,200.174 46.137,200.111 46.000 C 200.049 45.862,199.840 45.487,199.648 45.167 C 199.456 44.846,198.918 43.946,198.452 43.167 C 197.986 42.387,197.557 41.712,197.499 41.667 C 197.440 41.621,197.339 41.471,197.273 41.333 C 197.009 40.781,196.084 39.383,194.352 36.917 C 193.707 36.000,192.859 34.782,192.465 34.209 C 192.072 33.637,191.689 33.168,191.615 33.167 C 191.540 33.167,191.728 33.506,192.031 33.921 M146.758 38.312 C 146.845 38.391,147.854 38.945,149.000 39.541 C 150.146 40.138,151.421 40.809,151.833 41.032 C 153.898 42.151,154.977 42.742,155.583 43.085 C 156.295 43.488,157.530 44.160,159.417 45.173 C 160.058 45.517,160.921 45.993,161.333 46.231 C 161.746 46.468,162.196 46.714,162.333 46.777 C 162.471 46.841,162.872 47.072,163.224 47.292 C 163.576 47.511,163.900 47.656,163.942 47.613 C 164.013 47.543,163.626 47.304,161.583 46.158 C 160.902 45.776,156.485 43.355,154.833 42.459 C 154.329 42.185,153.542 41.755,153.083 41.503 C 148.897 39.200,146.294 37.886,146.758 38.312 M164.256 47.844 C 164.317 47.941,164.527 48.091,164.725 48.177 C 164.922 48.262,165.196 48.406,165.333 48.496 C 166.274 49.110,168.158 50.167,168.313 50.167 C 168.416 50.167,168.500 50.225,168.500 50.295 C 168.500 50.366,168.781 50.570,169.125 50.748 C 169.469 50.926,170.462 51.487,171.333 51.994 C 172.204 52.502,173.179 53.063,173.500 53.240 C 173.821 53.418,174.496 53.829,175.000 54.155 C 176.161 54.904,176.521 55.124,176.833 55.273 C 176.971 55.339,177.383 55.583,177.750 55.816 C 178.117 56.049,178.679 56.381,179.000 56.554 C 179.321 56.727,179.822 57.049,180.114 57.268 C 180.406 57.487,180.713 57.667,180.797 57.667 C 180.881 57.667,181.246 57.873,181.609 58.125 C 181.971 58.377,182.414 58.675,182.592 58.786 C 184.088 59.721,186.605 61.305,186.969 61.540 C 187.215 61.699,187.529 61.881,187.667 61.944 C 187.804 62.007,187.954 62.102,188.000 62.155 C 188.190 62.372,189.165 63.000,189.313 63.000 C 189.400 63.000,189.497 63.060,189.528 63.134 C 189.574 63.245,190.540 63.884,191.973 64.751 C 192.125 64.843,192.724 65.237,193.303 65.626 C 193.883 66.015,194.420 66.333,194.498 66.333 C 194.575 66.333,194.664 66.390,194.694 66.458 C 194.750 66.584,196.286 67.667,196.409 67.667 C 196.545 67.667,200.252 70.233,200.306 70.363 C 200.336 70.439,200.433 70.500,200.521 70.500 C 200.659 70.500,201.593 71.093,201.833 71.333 C 201.879 71.379,202.045 71.492,202.202 71.583 C 202.896 71.989,205.922 74.096,205.972 74.208 C 206.003 74.277,206.113 74.333,206.216 74.333 C 206.587 74.333,203.749 72.326,197.500 68.165 C 193.202 65.304,187.104 61.353,185.083 60.120 C 184.900 60.008,184.412 59.699,184.000 59.432 C 182.964 58.763,172.339 52.333,172.268 52.333 C 172.236 52.333,171.145 51.696,169.843 50.917 C 168.541 50.137,167.446 49.500,167.410 49.500 C 167.374 49.500,166.665 49.087,165.833 48.583 C 164.273 47.637,164.070 47.542,164.256 47.844 M202.024 49.768 C 202.061 49.850,202.768 51.267,203.595 52.917 C 204.422 54.567,205.462 56.762,205.906 57.796 C 206.350 58.830,206.756 59.633,206.808 59.581 C 206.860 59.529,206.787 59.246,206.646 58.952 C 206.353 58.341,205.889 57.315,205.572 56.583 C 204.948 55.138,202.275 49.817,202.128 49.726 C 202.034 49.668,201.987 49.687,202.024 49.768 M206.839 59.864 C 206.833 59.976,207.479 61.599,207.921 62.583 C 208.055 62.883,208.150 62.970,208.156 62.802 C 208.162 62.646,208.092 62.473,208.000 62.417 C 207.908 62.360,207.833 62.187,207.832 62.032 C 207.832 61.877,207.719 61.535,207.582 61.273 C 207.445 61.010,207.333 60.706,207.333 60.596 C 207.333 60.386,206.848 59.668,206.839 59.864 M208.173 63.273 C 208.169 63.377,208.279 63.677,208.416 63.939 C 208.553 64.202,208.662 64.304,208.660 64.167 C 208.654 63.868,208.181 63.000,208.173 63.273 M208.673 64.606 C 208.669 64.710,208.776 65.047,208.910 65.356 C 209.078 65.743,209.154 65.813,209.154 65.583 C 209.155 65.234,208.683 64.276,208.673 64.606 M209.258 66.250 C 209.321 66.433,209.435 66.848,209.512 67.172 C 209.721 68.050,210.152 68.991,210.159 68.583 C 210.162 68.400,210.053 68.035,209.916 67.773 C 209.779 67.510,209.664 67.173,209.661 67.023 C 209.658 66.873,209.540 66.563,209.399 66.333 C 209.228 66.054,209.181 66.027,209.258 66.250 M151.104 69.792 C 151.625 70.777,152.532 72.546,153.121 73.723 C 153.711 74.900,154.226 75.830,154.267 75.788 C 154.308 75.747,153.577 74.222,152.642 72.399 C 151.708 70.575,150.828 68.840,150.687 68.542 C 150.546 68.244,150.369 68.000,150.294 68.000 C 150.219 68.000,150.583 68.806,151.104 69.792 M210.180 69.045 C 210.173 69.115,210.325 69.753,210.520 70.461 C 210.714 71.170,210.933 71.975,211.008 72.250 C 211.082 72.525,211.222 72.975,211.320 73.250 L 211.497 73.750 211.426 73.250 C 211.314 72.465,210.929 71.040,210.792 70.903 C 210.723 70.834,210.663 70.584,210.659 70.347 C 210.652 69.952,210.211 68.752,210.180 69.045 M211.515 74.083 C 211.510 74.267,211.611 74.754,211.741 75.167 C 211.948 75.821,211.978 75.853,211.976 75.417 C 211.974 74.836,211.531 73.555,211.515 74.083 M206.501 74.454 C 206.502 74.525,206.708 74.706,206.959 74.856 C 207.531 75.198,209.539 76.605,211.109 77.765 C 212.289 78.636,212.302 78.654,212.384 79.531 C 212.477 80.528,212.747 82.758,213.016 84.750 C 213.278 86.686,213.109 95.254,212.763 97.583 C 212.613 98.592,212.458 99.717,212.418 100.083 L 212.346 100.750 212.504 100.167 C 213.574 96.235,213.661 85.345,212.663 80.450 C 212.483 79.566,212.448 78.667,212.594 78.667 C 212.892 78.667,215.701 80.605,219.000 83.087 C 219.871 83.743,222.046 85.375,223.833 86.714 C 225.621 88.053,227.542 89.509,228.103 89.950 C 228.663 90.390,229.751 91.233,230.519 91.824 C 236.249 96.226,242.808 101.595,249.766 107.575 C 251.897 109.406,255.135 112.264,255.333 112.489 C 255.379 112.541,256.091 113.183,256.915 113.917 C 259.621 116.325,259.535 116.401,255.509 115.172 C 254.918 114.992,254.401 114.877,254.360 114.918 C 254.276 115.002,254.294 115.008,256.000 115.504 C 256.688 115.704,257.550 115.962,257.917 116.078 C 260.387 116.857,260.009 116.344,254.581 111.556 C 253.941 110.990,253.154 110.289,252.833 109.997 C 252.512 109.705,251.914 109.193,251.504 108.858 C 251.093 108.524,250.606 108.099,250.420 107.915 C 250.125 107.621,248.318 106.056,247.151 105.082 C 246.930 104.898,246.223 104.298,245.578 103.749 C 244.934 103.199,244.039 102.450,243.589 102.083 C 243.139 101.717,242.652 101.304,242.508 101.167 C 242.363 101.029,241.908 100.658,241.497 100.342 C 241.086 100.025,240.485 99.538,240.161 99.258 C 239.837 98.979,239.240 98.487,238.835 98.167 C 238.430 97.846,237.979 97.471,237.832 97.333 C 237.686 97.196,237.082 96.710,236.491 96.254 C 235.900 95.798,235.318 95.329,235.196 95.212 C 235.075 95.096,234.925 95.000,234.861 95.000 C 234.798 95.000,234.560 94.829,234.332 94.619 C 234.103 94.410,233.279 93.755,232.500 93.165 C 231.721 92.574,230.896 91.926,230.667 91.723 C 230.438 91.521,229.974 91.144,229.637 90.886 C 229.299 90.628,227.995 89.629,226.737 88.667 C 225.480 87.704,224.151 86.705,223.784 86.445 C 223.417 86.186,223.025 85.886,222.912 85.779 C 222.800 85.671,222.542 85.471,222.341 85.333 C 221.441 84.720,219.080 82.982,218.606 82.583 C 218.497 82.492,218.147 82.233,217.829 82.007 C 217.510 81.782,217.175 81.539,217.083 81.466 C 216.176 80.744,212.763 78.333,212.649 78.333 C 212.567 78.333,212.494 78.090,212.487 77.792 C 212.480 77.494,212.369 76.950,212.240 76.583 C 211.992 75.876,212.003 76.214,212.271 77.500 C 212.461 78.413,211.906 78.138,208.250 75.506 C 207.030 74.628,206.500 74.309,206.501 74.454 M154.333 76.103 C 154.333 76.195,154.443 76.415,154.578 76.593 C 154.713 76.771,154.823 76.842,154.823 76.750 C 154.823 76.658,154.713 76.438,154.578 76.260 C 154.443 76.082,154.333 76.011,154.333 76.103 M154.861 77.132 C 155.258 78.071,156.238 79.985,156.293 79.929 C 156.379 79.843,155.019 77.000,154.892 77.000 C 154.844 77.000,154.831 77.059,154.861 77.132 M156.333 80.235 C 156.333 80.272,156.514 80.666,156.734 81.110 C 157.828 83.309,159.673 87.573,163.177 96.000 C 163.349 96.412,163.491 96.638,163.494 96.500 C 163.496 96.362,163.386 96.035,163.249 95.773 C 163.112 95.510,163.000 95.197,163.000 95.078 C 163.000 94.958,162.894 94.648,162.765 94.389 C 162.636 94.129,162.453 93.729,162.358 93.500 C 162.263 93.271,162.031 92.731,161.842 92.301 C 161.654 91.870,161.500 91.479,161.500 91.430 C 161.500 91.382,161.307 90.909,161.071 90.380 C 160.571 89.258,160.218 88.450,159.922 87.750 C 159.806 87.475,159.522 86.837,159.290 86.333 C 159.058 85.829,158.665 84.929,158.417 84.333 C 157.440 81.991,156.333 79.814,156.333 80.235 M163.583 97.083 C 163.801 97.739,165.700 102.764,166.008 103.500 C 166.184 103.919,166.323 104.103,166.323 103.917 C 166.323 103.733,166.213 103.438,166.078 103.260 C 165.943 103.082,165.833 102.803,165.833 102.640 C 165.833 102.478,165.728 102.098,165.600 101.797 C 165.472 101.496,165.237 100.912,165.078 100.500 C 164.918 100.087,164.686 99.514,164.561 99.225 C 164.436 98.936,164.333 98.584,164.333 98.443 C 164.333 98.302,164.258 98.140,164.167 98.083 C 164.075 98.027,164.000 97.849,164.000 97.689 C 164.000 97.528,163.881 97.251,163.736 97.074 C 163.476 96.755,163.474 96.755,163.583 97.083 M212.042 101.653 C 211.927 102.024,211.839 102.498,211.845 102.706 C 211.852 102.929,211.958 102.753,212.104 102.277 C 212.241 101.833,212.329 101.360,212.301 101.224 C 212.273 101.089,212.156 101.282,212.042 101.653 M211.498 104.025 C 211.099 105.536,210.774 106.601,210.557 107.109 C 210.434 107.397,210.333 107.714,210.333 107.811 C 210.333 107.968,210.146 108.446,209.638 109.583 C 209.557 109.767,209.473 110.142,209.453 110.417 L 209.417 110.917 210.583 110.958 C 211.225 110.980,212.575 110.890,213.583 110.757 L 215.417 110.516 213.833 110.586 C 212.963 110.625,211.749 110.707,211.136 110.767 C 209.283 110.950,209.292 111.035,210.744 107.167 C 210.865 106.846,211.091 106.133,211.247 105.583 C 211.403 105.033,211.606 104.334,211.697 104.029 C 211.789 103.724,211.825 103.436,211.777 103.388 C 211.729 103.340,211.604 103.627,211.498 104.025 M166.401 104.598 C 166.470 104.773,166.687 105.404,166.884 106.000 C 167.082 106.596,167.269 106.952,167.301 106.792 C 167.332 106.631,167.246 106.276,167.109 106.002 C 166.972 105.728,166.811 105.278,166.751 105.004 C 166.690 104.729,166.559 104.453,166.459 104.391 C 166.337 104.316,166.318 104.385,166.401 104.598 M167.408 107.417 C 167.477 107.600,167.643 108.114,167.778 108.558 C 167.912 109.003,168.059 109.330,168.104 109.285 C 168.213 109.176,167.663 107.461,167.451 107.250 C 167.340 107.139,167.325 107.194,167.408 107.417 M168.174 109.583 C 168.174 109.675,168.512 110.725,168.925 111.917 C 169.338 113.108,169.643 113.858,169.604 113.583 C 169.483 112.748,168.174 109.085,168.174 109.583 M219.375 110.458 C 220.635 110.486,222.698 110.486,223.958 110.458 C 225.219 110.430,224.188 110.406,221.667 110.406 C 219.146 110.406,218.115 110.430,219.375 110.458 M229.500 110.744 C 230.463 110.867,231.850 110.964,232.583 110.957 L 233.917 110.946 232.750 110.830 C 232.108 110.766,230.721 110.670,229.667 110.616 L 227.750 110.519 229.500 110.744 M234.583 111.168 C 234.858 111.260,235.721 111.364,236.500 111.400 C 237.627 111.452,237.729 111.440,237.000 111.342 C 234.831 111.049,234.066 110.994,234.583 111.168 M238.474 111.664 C 238.688 111.758,239.401 111.867,240.057 111.908 C 240.985 111.967,241.084 111.954,240.500 111.852 C 238.803 111.557,238.069 111.489,238.474 111.664 M241.529 112.173 C 241.683 112.263,242.283 112.372,242.862 112.416 L 243.917 112.496 242.750 112.261 C 241.331 111.975,241.171 111.964,241.529 112.173 M244.058 112.613 C 244.120 112.675,244.751 112.828,245.460 112.953 C 248.073 113.414,248.550 113.515,248.844 113.672 C 249.009 113.761,249.356 113.828,249.614 113.822 C 250.332 113.804,248.957 113.417,246.405 112.918 C 244.107 112.468,243.884 112.439,244.058 112.613 M250.750 114.089 C 251.025 114.215,251.475 114.317,251.750 114.315 C 252.151 114.312,252.085 114.265,251.417 114.079 C 250.369 113.789,250.102 113.793,250.750 114.089 M169.685 114.333 C 169.699 114.845,170.141 115.799,170.148 115.333 C 170.152 115.104,170.048 114.729,169.917 114.500 C 169.785 114.269,169.682 114.195,169.685 114.333 M252.750 114.574 C 253.025 114.708,253.438 114.814,253.667 114.809 C 254.050 114.800,254.044 114.788,253.583 114.662 C 252.373 114.331,252.219 114.314,252.750 114.574 M170.231 116.070 C 170.294 116.246,170.417 116.696,170.506 117.070 C 170.714 117.943,171.524 120.218,171.431 119.667 C 171.392 119.438,171.237 118.837,171.085 118.333 C 170.934 117.829,170.736 117.117,170.645 116.750 C 170.555 116.383,170.399 116.008,170.299 115.917 C 170.171 115.799,170.151 115.844,170.231 116.070 M260.000 116.719 C 260.000 116.944,261.383 118.318,265.336 122.022 C 269.179 125.623,277.241 133.755,280.336 137.151 C 281.206 138.105,282.272 139.267,282.707 139.734 C 283.512 140.600,283.418 140.991,282.520 140.510 C 282.338 140.413,282.052 140.336,281.886 140.340 C 281.385 140.351,282.656 140.833,283.186 140.833 C 283.987 140.833,284.026 140.890,280.834 137.419 C 278.804 135.213,276.862 133.215,272.167 128.507 C 267.685 124.013,265.978 122.348,262.332 118.917 C 261.650 118.275,260.905 117.532,260.677 117.266 L 260.261 116.783 260.885 116.900 C 261.718 117.056,264.759 118.081,266.402 118.758 C 266.617 118.847,266.685 118.831,266.609 118.708 C 266.547 118.608,266.273 118.477,266.000 118.417 C 265.727 118.357,265.461 118.238,265.409 118.154 C 265.356 118.069,265.198 118.000,265.057 118.000 C 264.916 118.000,264.564 117.895,264.275 117.767 C 263.986 117.639,263.337 117.405,262.833 117.247 C 262.329 117.090,261.670 116.857,261.369 116.730 C 260.676 116.439,260.000 116.433,260.000 116.719 M267.000 118.945 C 267.413 119.086,269.725 120.006,270.083 120.172 C 270.267 120.257,270.604 120.396,270.833 120.482 C 271.063 120.568,271.550 120.759,271.917 120.907 C 272.486 121.138,272.536 121.140,272.260 120.922 C 272.082 120.782,271.871 120.667,271.791 120.667 C 271.711 120.667,271.257 120.491,270.781 120.276 C 270.306 120.061,269.579 119.751,269.167 119.587 C 268.754 119.422,268.180 119.186,267.891 119.061 C 267.603 118.936,267.228 118.839,267.058 118.846 C 266.829 118.856,266.814 118.881,267.000 118.945 M171.509 120.355 C 171.504 120.504,171.603 120.879,171.730 121.188 C 171.856 121.497,172.174 122.612,172.436 123.665 C 172.698 124.719,172.940 125.438,172.974 125.262 C 173.008 125.087,172.918 124.563,172.776 124.097 C 172.633 123.631,172.394 122.800,172.244 122.250 C 171.897 120.977,171.520 120.003,171.509 120.355 M273.250 121.506 C 275.040 122.363,275.730 122.658,275.794 122.595 C 275.832 122.556,275.426 122.323,274.890 122.077 C 274.355 121.830,273.718 121.524,273.474 121.397 C 273.231 121.270,272.931 121.171,272.808 121.177 C 272.684 121.183,272.883 121.331,273.250 121.506 M276.260 122.911 C 276.683 123.232,276.931 123.235,276.667 122.917 C 276.553 122.779,276.342 122.667,276.198 122.667 C 275.988 122.667,276.001 122.715,276.260 122.911 M280.256 124.828 C 282.077 125.742,283.597 126.459,283.634 126.421 C 283.705 126.351,282.976 125.954,281.667 125.350 C 281.254 125.159,280.804 124.930,280.667 124.841 C 280.092 124.467,277.376 123.167,277.170 123.167 C 277.047 123.167,278.435 123.914,280.256 124.828 M173.013 125.667 C 173.021 126.121,173.478 127.338,173.483 126.917 C 173.486 126.642,173.381 126.229,173.250 126.000 C 173.119 125.771,173.012 125.621,173.013 125.667 M173.559 127.833 C 173.616 128.063,173.818 128.887,174.008 129.667 C 174.422 131.369,174.871 132.805,174.764 132.083 C 174.724 131.808,174.568 131.096,174.419 130.500 C 174.270 129.904,174.072 129.042,173.978 128.583 C 173.884 128.125,173.728 127.675,173.631 127.583 C 173.508 127.467,173.486 127.543,173.559 127.833 M216.000 130.660 C 214.487 130.710,217.412 130.750,222.500 130.750 C 228.177 130.750,230.527 130.710,228.583 130.647 C 224.913 130.527,219.926 130.532,216.000 130.660 M208.917 131.000 C 208.250 131.170,210.338 131.174,211.833 131.006 C 212.842 130.893,212.796 130.884,211.167 130.878 C 210.204 130.875,209.192 130.930,208.917 131.000 M233.417 131.011 C 234.242 131.089,236.079 131.231,237.500 131.328 C 238.921 131.424,240.421 131.540,240.833 131.585 C 241.502 131.657,241.529 131.648,241.083 131.499 C 240.495 131.303,236.366 130.972,233.750 130.911 L 231.917 130.869 233.417 131.011 M204.855 131.347 C 204.271 131.422,203.746 131.535,203.688 131.597 C 203.631 131.660,204.071 131.655,204.667 131.586 C 205.262 131.517,206.350 131.406,207.083 131.338 L 208.417 131.215 207.167 131.212 C 206.479 131.210,205.439 131.271,204.855 131.347 M200.417 131.921 C 199.958 132.048,199.246 132.157,198.833 132.162 C 198.421 132.168,197.558 132.284,196.917 132.420 C 196.275 132.555,195.525 132.672,195.250 132.679 C 194.975 132.687,194.450 132.797,194.083 132.925 C 193.246 133.217,193.537 133.190,196.667 132.691 C 200.620 132.060,201.397 131.941,202.333 131.827 L 203.250 131.716 202.250 131.702 C 201.700 131.695,200.875 131.793,200.417 131.921 M242.750 131.822 C 245.141 132.150,245.604 132.183,245.167 131.992 C 244.938 131.892,244.075 131.782,243.250 131.747 C 241.917 131.692,241.862 131.700,242.750 131.822 M246.583 132.323 C 247.133 132.400,247.921 132.510,248.333 132.568 C 248.954 132.656,249.012 132.644,248.672 132.496 C 248.446 132.398,247.659 132.287,246.922 132.251 C 245.649 132.188,245.633 132.191,246.583 132.323 M174.846 132.850 C 174.839 132.997,174.902 133.334,174.986 133.600 C 175.070 133.866,175.269 134.666,175.428 135.377 C 175.587 136.089,175.756 136.633,175.803 136.586 C 175.896 136.493,175.425 134.341,175.074 133.250 C 174.956 132.883,174.854 132.703,174.846 132.850 M249.917 132.841 C 250.375 132.912,251.088 133.015,251.500 133.071 L 252.250 133.173 251.500 132.922 C 251.088 132.784,250.375 132.681,249.917 132.693 L 249.083 132.714 249.917 132.841 M191.083 133.421 C 190.214 133.708,190.809 133.707,192.083 133.420 C 192.996 133.214,193.025 133.195,192.417 133.198 C 192.050 133.200,191.450 133.300,191.083 133.421 M253.083 133.332 C 253.450 133.400,254.088 133.504,254.500 133.564 L 255.250 133.673 254.500 133.422 C 254.088 133.284,253.450 133.180,253.083 133.190 L 252.417 133.208 253.083 133.332 M189.000 133.833 C 188.862 133.922,188.563 134.006,188.333 134.020 C 188.011 134.040,187.992 134.059,188.250 134.106 C 188.433 134.139,188.958 134.061,189.417 133.931 C 190.107 133.737,190.164 133.694,189.750 133.684 C 189.475 133.677,189.137 133.744,189.000 133.833 M256.417 133.928 C 257.510 134.232,258.107 134.221,257.250 133.912 C 256.883 133.780,256.358 133.677,256.083 133.684 C 255.671 133.694,255.729 133.737,256.417 133.928 M186.750 134.333 C 186.693 134.425,186.445 134.500,186.198 134.501 C 185.687 134.502,184.434 134.823,184.537 134.926 C 184.611 135.000,186.595 134.603,187.417 134.349 L 187.917 134.195 187.385 134.181 C 187.092 134.173,186.807 134.242,186.750 134.333 M258.583 134.338 C 259.399 134.609,261.528 135.028,261.620 134.935 C 261.667 134.888,261.528 134.807,261.311 134.756 C 260.332 134.523,259.202 134.303,258.667 134.240 L 258.083 134.172 258.583 134.338 M182.833 135.236 C 182.512 135.357,181.650 135.585,180.917 135.743 C 180.183 135.902,179.358 136.139,179.083 136.271 C 178.508 136.546,178.624 136.527,180.583 136.017 C 181.225 135.850,181.975 135.665,182.250 135.606 C 183.575 135.320,184.420 135.023,183.917 135.020 C 183.642 135.018,183.154 135.116,182.833 135.236 M261.917 135.079 C 262.008 135.107,263.133 135.369,264.417 135.660 C 265.700 135.952,267.032 136.272,267.376 136.372 C 267.720 136.472,268.039 136.516,268.085 136.471 C 268.189 136.367,267.312 136.111,265.583 135.742 C 264.850 135.585,263.918 135.354,263.512 135.228 C 263.106 135.103,262.544 135.006,262.262 135.013 C 261.980 135.020,261.825 135.050,261.917 135.079 M177.083 136.756 C 176.420 137.060,176.905 137.059,177.750 136.755 C 178.265 136.569,178.322 136.516,178.000 136.521 C 177.771 136.524,177.358 136.630,177.083 136.756 M269.083 136.755 C 269.450 136.887,269.862 136.990,270.000 136.984 C 270.408 136.966,269.287 136.515,268.833 136.515 C 268.505 136.515,268.558 136.565,269.083 136.755 M270.503 137.049 C 270.580 137.134,272.447 137.678,273.750 137.994 C 274.025 138.061,274.428 138.172,274.646 138.242 C 274.902 138.324,275.005 138.309,274.937 138.199 C 274.879 138.106,274.516 137.976,274.131 137.911 C 273.745 137.845,273.314 137.729,273.173 137.653 C 273.032 137.576,272.542 137.431,272.083 137.330 C 271.625 137.229,271.063 137.103,270.833 137.051 C 270.604 136.998,270.455 136.997,270.503 137.049 M275.667 138.583 C 276.439 138.881,276.657 138.879,276.260 138.578 C 276.082 138.443,275.744 138.339,275.510 138.346 C 275.122 138.358,275.136 138.379,275.667 138.583 M277.417 139.087 C 278.462 139.377,278.514 139.377,278.000 139.083 C 277.771 138.952,277.358 138.848,277.083 138.850 C 276.680 138.855,276.745 138.901,277.417 139.087 M279.833 139.842 C 281.261 140.328,281.794 140.446,281.333 140.177 C 280.908 139.928,279.027 139.333,278.714 139.347 C 278.550 139.355,279.054 139.578,279.833 139.842 " stroke="none" fill="#6c8ca4" fill-rule="evenodd"></path></g></svg>