<?xml version="1.0" standalone="no"?>
<!DOCTYPE svg PUBLIC "-//W3C//DTD SVG 20010904//EN"
 "http://www.w3.org/TR/2001/REC-SVG-20010904/DTD/svg10.dtd">
<svg version="1.0" xmlns="http://www.w3.org/2000/svg"
 width="136.000000pt" height="50.000000pt" viewBox="0 0 136.000000 50.000000"
 preserveAspectRatio="xMidYMid meet">

<g transform="translate(0.000000,50.000000) scale(0.100000,-0.100000)"
fill="#000000" stroke="none">
<path d="M119 431 l-29 -29 0 -142 0 -142 29 -29 29 -29 142 0 142 0 29 29 29
29 0 142 0 142 -29 29 -29 29 -142 0 -142 0 -29 -29z m326 -16 c20 -19 25 -34
25 -75 l0 -50 -35 0 -35 0 0 48 c0 26 -5 53 -12 60 -16 16 -180 16 -196 0 -7
-7 -12 -38 -12 -70 0 -50 3 -58 18 -58 11 0 24 10 29 23 10 21 11 21 20 -13
l10 -35 11 53 c7 29 12 61 13 70 1 30 16 -18 24 -77 8 -58 17 -54 30 14 l8 40
12 -35 c11 -32 15 -35 61 -40 l49 -5 3 -66 c2 -54 -1 -70 -18 -92 -21 -27 -22
-27 -156 -27 -130 0 -136 1 -159 25 -18 18 -25 35 -25 65 0 39 1 40 35 40 34
0 35 -1 35 -38 0 -56 12 -62 116 -62 104 0 104 0 104 80 0 45 -2 48 -30 52
-28 4 -29 3 -36 -49 -8 -64 -20 -68 -29 -10 -12 68 -21 74 -29 18 -4 -28 -11
-51 -15 -51 -5 0 -12 21 -16 47 -5 35 -9 43 -17 32 -7 -11 -11 -11 -15 -1 -3
7 -24 12 -54 12 l-49 0 0 75 c0 67 3 79 25 100 23 24 29 25 155 25 126 0 132
-1 155 -25z"/>
<path d="M610 360 c-25 -25 -26 -72 -2 -92 9 -8 35 -20 57 -26 54 -16 69 -27
62 -46 -8 -21 -70 -21 -87 -1 -7 8 -23 15 -36 15 -24 0 -24 -1 -10 -29 18 -34
33 -41 90 -41 59 0 86 22 86 70 0 42 -18 58 -85 74 -39 10 -55 24 -48 42 7 19
72 19 79 -1 7 -17 54 -21 54 -5 0 6 -11 22 -25 35 -32 33 -105 35 -135 5z"/>
<path d="M828 319 c-14 -6 -29 -17 -32 -25 -5 -12 4 -14 44 -12 55 3 70 -12
24 -26 -70 -21 -74 -24 -74 -60 0 -44 18 -55 93 -54 l57 1 0 77 c0 50 -4 81
-12 88 -21 16 -71 21 -100 11z m72 -103 c0 -19 -38 -46 -56 -39 -22 8 -17 33
9 43 33 13 47 12 47 -4z"/>
<path d="M1000 319 c-35 -14 -40 -26 -40 -106 0 -66 2 -73 20 -73 18 0 20 7
20 64 0 46 4 67 16 77 29 24 48 -1 54 -72 4 -50 9 -65 23 -67 15 -3 17 5 17
71 0 58 -4 77 -17 90 -24 21 -63 28 -93 16z"/>
<path d="M1172 323 c-12 -2 -27 -14 -33 -25 -10 -19 -9 -20 40 -13 43 6 51 4
51 -9 0 -9 -12 -18 -27 -22 -62 -13 -73 -22 -73 -58 0 -44 18 -55 93 -54 l57
1 0 71 c0 43 -5 79 -12 88 -14 18 -60 28 -96 21z m68 -103 c0 -18 -39 -50 -55
-44 -22 9 -18 33 8 44 30 12 47 12 47 0z"/>
</g>
</svg>
